<?xml version="1.0" encoding="utf-8"?>
<!-- Generator: Adobe Illustrator 19.2.0, SVG Export Plug-In . SVG Version: 6.00 Build 0)  -->
<svg version="1.0" id="Layer_1" xmlns="http://www.w3.org/2000/svg" xmlns:xlink="http://www.w3.org/1999/xlink" x="0px" y="0px"
	 viewBox="0 0 485 773" style="enable-background:new 0 0 485 773;" xml:space="preserve">
<style type="text/css">
	.st0{fill:#EAEAEA;}
	.st1{fill:url(#SVGID_1_);}
	.st2{fill:url(#SVGID_2_);}
	.st3{fill:url(#SVGID_3_);}
	.st4{fill:url(#SVGID_4_);}
	.st5{fill:url(#SVGID_5_);}
	.st6{fill:url(#SVGID_6_);}
	.st7{fill:url(#SVGID_7_);}
	.st8{fill:url(#SVGID_8_);}
	.st9{fill:url(#SVGID_9_);}
	.st10{fill:url(#SVGID_10_);}
	.st11{opacity:0.4;fill:#10113C;}
	.st12{fill:#FFFFFF;}
	.st13{fill:url(#SVGID_11_);}
	.st14{fill:#11203B;}
	.st15{opacity:0.4;fill:#10AADB;}
	.st16{fill:#151C46;}
	.st17{fill:url(#SVGID_12_);}
	.st18{fill:url(#SVGID_13_);}
	.st19{fill:#10AADB;}
	.st20{opacity:0.5;fill:url(#SVGID_14_);}
	.st21{opacity:0.5;fill:#E7F5F6;}
	.st22{opacity:0.5;fill:#FFFFFF;}
	.st23{fill:url(#SVGID_15_);}
	.st24{fill:#78C6D9;}
	.st25{fill:url(#SVGID_16_);}
	.st26{fill:url(#SVGID_17_);}
	.st27{fill:url(#SVGID_18_);}
	.st28{fill:url(#SVGID_19_);}
	.st29{fill:url(#SVGID_20_);}
	.st30{fill:url(#SVGID_21_);}
	.st31{fill:url(#SVGID_22_);}
	.st32{fill:url(#SVGID_23_);}
	.st33{fill:url(#SVGID_24_);}
	.st34{fill:url(#SVGID_25_);}
	.st35{fill:url(#SVGID_26_);}
	.st36{fill:url(#SVGID_27_);}
	.st37{fill:#E2B1A6;}
	.st38{fill:url(#SVGID_28_);}
	.st39{fill:url(#SVGID_29_);}
	.st40{fill:#F1F6FC;}
	.st41{fill:#C4CBD5;}
	.st42{fill:url(#SVGID_30_);}
	.st43{opacity:0.6;fill:#11122E;}
	.st44{fill:#FCD1C6;}
	.st45{fill:url(#SVGID_31_);}
	.st46{opacity:0.5;fill:#351030;}
	.st47{fill:url(#SVGID_32_);}
	.st48{fill:#1E262D;}
	.st49{fill:url(#SVGID_33_);}
	.st50{fill:url(#SVGID_34_);}
	.st51{fill:url(#SVGID_35_);}
	.st52{fill:url(#SVGID_36_);}
	.st53{fill:url(#SVGID_37_);}
	.st54{fill:url(#SVGID_38_);}
	.st55{fill:url(#SVGID_39_);}
	.st56{fill:url(#SVGID_40_);}
	.st57{fill:url(#SVGID_41_);}
	.st58{fill:url(#SVGID_42_);}
	.st59{fill:url(#SVGID_43_);}
	.st60{fill:url(#SVGID_44_);}
	.st61{fill:url(#SVGID_45_);}
	.st62{fill:url(#SVGID_46_);}
	.st63{fill:url(#SVGID_47_);}
	.st64{fill:url(#SVGID_48_);}
	.st65{fill:url(#SVGID_49_);}
	.st66{clip-path:url(#SVGID_51_);fill:#232B62;}
	.st67{clip-path:url(#SVGID_51_);fill:#232C63;}
	.st68{clip-path:url(#SVGID_51_);fill:#232D64;}
	.st69{clip-path:url(#SVGID_51_);fill:#232E65;}
	.st70{clip-path:url(#SVGID_51_);fill:#242F66;}
	.st71{clip-path:url(#SVGID_51_);fill:#243066;}
	.st72{clip-path:url(#SVGID_51_);fill:#243168;}
	.st73{clip-path:url(#SVGID_51_);fill:#243269;}
	.st74{clip-path:url(#SVGID_51_);fill:#24326A;}
	.st75{clip-path:url(#SVGID_51_);fill:#24336C;}
	.st76{clip-path:url(#SVGID_51_);fill:#24356D;}
	.st77{clip-path:url(#SVGID_51_);fill:#24356E;}
	.st78{clip-path:url(#SVGID_51_);fill:#24366F;}
	.st79{clip-path:url(#SVGID_51_);fill:#233770;}
	.st80{clip-path:url(#SVGID_51_);fill:#243871;}
	.st81{clip-path:url(#SVGID_51_);fill:#243972;}
	.st82{clip-path:url(#SVGID_51_);fill:#243973;}
	.st83{clip-path:url(#SVGID_51_);fill:#243A74;}
	.st84{clip-path:url(#SVGID_51_);fill:#233B75;}
	.st85{clip-path:url(#SVGID_51_);fill:#233C76;}
	.st86{clip-path:url(#SVGID_51_);fill:#223C77;}
	.st87{clip-path:url(#SVGID_51_);fill:#223D79;}
	.st88{clip-path:url(#SVGID_51_);fill:#213E7A;}
	.st89{clip-path:url(#SVGID_51_);fill:#203F7B;}
	.st90{clip-path:url(#SVGID_51_);fill:#203F7C;}
	.st91{clip-path:url(#SVGID_51_);fill:#20407D;}
	.st92{clip-path:url(#SVGID_51_);fill:#1F417E;}
	.st93{clip-path:url(#SVGID_51_);fill:#1F4280;}
	.st94{clip-path:url(#SVGID_51_);fill:#1D4381;}
	.st95{clip-path:url(#SVGID_51_);fill:#1D4482;}
	.st96{clip-path:url(#SVGID_51_);fill:#1B4583;}
	.st97{clip-path:url(#SVGID_51_);fill:#1A4684;}
	.st98{clip-path:url(#SVGID_51_);fill:#194785;}
	.st99{clip-path:url(#SVGID_51_);fill:#174886;}
	.st100{clip-path:url(#SVGID_51_);fill:#164887;}
	.st101{clip-path:url(#SVGID_51_);fill:#144A88;}
	.st102{clip-path:url(#SVGID_51_);fill:#134A89;}
	.st103{clip-path:url(#SVGID_51_);fill:#104C8A;}
	.st104{clip-path:url(#SVGID_51_);fill:#134C8B;}
	.st105{clip-path:url(#SVGID_51_);fill:#114D8C;}
	.st106{clip-path:url(#SVGID_51_);fill:#124E8D;}
	.st107{clip-path:url(#SVGID_51_);fill:#124F8E;}
	.st108{clip-path:url(#SVGID_51_);fill:#12508F;}
	.st109{clip-path:url(#SVGID_51_);fill:#105190;}
	.st110{clip-path:url(#SVGID_51_);fill:#105291;}
	.st111{clip-path:url(#SVGID_51_);fill:#125392;}
	.st112{clip-path:url(#SVGID_51_);fill:#125493;}
	.st113{clip-path:url(#SVGID_51_);fill:#0F5594;}
	.st114{clip-path:url(#SVGID_51_);fill:#115696;}
	.st115{clip-path:url(#SVGID_51_);fill:#115797;}
	.st116{clip-path:url(#SVGID_51_);fill:#0E5897;}
	.st117{clip-path:url(#SVGID_51_);fill:#105999;}
	.st118{clip-path:url(#SVGID_51_);fill:#105A9A;}
	.st119{clip-path:url(#SVGID_51_);fill:#115B9B;}
	.st120{clip-path:url(#SVGID_51_);fill:#135C9D;}
	.st121{clip-path:url(#SVGID_51_);fill:#135D9D;}
	.st122{clip-path:url(#SVGID_51_);fill:#145E9F;}
	.st123{clip-path:url(#SVGID_51_);fill:#145FA0;}
	.st124{clip-path:url(#SVGID_51_);fill:#1160A1;}
	.st125{clip-path:url(#SVGID_51_);fill:#1261A3;}
	.st126{clip-path:url(#SVGID_51_);fill:#1362A3;}
	.st127{clip-path:url(#SVGID_51_);fill:#1363A4;}
	.st128{clip-path:url(#SVGID_51_);fill:#1064A5;}
	.st129{clip-path:url(#SVGID_51_);fill:#1165A6;}
	.st130{clip-path:url(#SVGID_51_);fill:#1266A7;}
	.st131{clip-path:url(#SVGID_51_);fill:#1367A8;}
	.st132{clip-path:url(#SVGID_51_);fill:#1468A9;}
	.st133{clip-path:url(#SVGID_51_);fill:#1069AA;}
	.st134{clip-path:url(#SVGID_51_);fill:#116AAB;}
	.st135{clip-path:url(#SVGID_51_);fill:#136BAB;}
	.st136{clip-path:url(#SVGID_51_);fill:#136CAC;}
	.st137{clip-path:url(#SVGID_51_);fill:#146DAE;}
	.st138{clip-path:url(#SVGID_51_);fill:#156EAF;}
	.st139{clip-path:url(#SVGID_51_);fill:#116FB0;}
	.st140{clip-path:url(#SVGID_51_);fill:#1270B1;}
	.st141{clip-path:url(#SVGID_51_);fill:#1371B2;}
	.st142{clip-path:url(#SVGID_51_);fill:#1572B2;}
	.st143{clip-path:url(#SVGID_51_);fill:#1573B4;}
	.st144{clip-path:url(#SVGID_51_);fill:#1274B4;}
	.st145{clip-path:url(#SVGID_51_);fill:#1375B5;}
	.st146{clip-path:url(#SVGID_51_);fill:#1376B6;}
	.st147{clip-path:url(#SVGID_51_);fill:#1477B7;}
	.st148{clip-path:url(#SVGID_51_);fill:#1578B8;}
	.st149{clip-path:url(#SVGID_51_);fill:#1779B9;}
	.st150{clip-path:url(#SVGID_51_);fill:#157BBA;}
	.st151{clip-path:url(#SVGID_51_);fill:#167CBB;}
	.st152{clip-path:url(#SVGID_51_);fill:#167DBC;}
	.st153{clip-path:url(#SVGID_51_);fill:#167EBD;}
	.st154{clip-path:url(#SVGID_51_);fill:#1780BD;}
	.st155{clip-path:url(#SVGID_51_);fill:#1480BE;}
	.st156{clip-path:url(#SVGID_51_);fill:#1683BF;}
	.st157{clip-path:url(#SVGID_51_);fill:#1483C0;}
	.st158{clip-path:url(#SVGID_51_);fill:#1584C1;}
	.st159{clip-path:url(#SVGID_51_);fill:#1586C2;}
	.st160{clip-path:url(#SVGID_51_);fill:#1487C3;}
	.st161{clip-path:url(#SVGID_51_);fill:#1588C3;}
	.st162{clip-path:url(#SVGID_51_);fill:#1289C4;}
	.st163{clip-path:url(#SVGID_51_);fill:#148CC5;}
	.st164{clip-path:url(#SVGID_51_);fill:#138CC6;}
	.st165{clip-path:url(#SVGID_51_);fill:#148EC7;}
	.st166{clip-path:url(#SVGID_51_);fill:#148FC8;}
	.st167{clip-path:url(#SVGID_51_);fill:#1490C9;}
	.st168{clip-path:url(#SVGID_51_);fill:#0E92CA;}
	.st169{clip-path:url(#SVGID_51_);fill:#1093CA;}
	.st170{clip-path:url(#SVGID_51_);fill:#0E93CB;}
	.st171{clip-path:url(#SVGID_51_);fill:#0E94CC;}
	.st172{clip-path:url(#SVGID_51_);fill:#0D96CD;}
	.st173{clip-path:url(#SVGID_51_);fill:#0E97CE;}
	.st174{clip-path:url(#SVGID_51_);fill:#1298CE;}
	.st175{clip-path:url(#SVGID_51_);fill:#1299CF;}
	.st176{clip-path:url(#SVGID_51_);fill:#0C9AD1;}
	.st177{clip-path:url(#SVGID_51_);fill:#0D9CD1;}
	.st178{clip-path:url(#SVGID_51_);fill:#0E9DD2;}
	.st179{clip-path:url(#SVGID_51_);fill:#0D9ED2;}
	.st180{clip-path:url(#SVGID_51_);fill:#0E9FD3;}
	.st181{clip-path:url(#SVGID_51_);fill:#0FA0D4;}
	.st182{clip-path:url(#SVGID_51_);fill:#0DA1D5;}
	.st183{clip-path:url(#SVGID_51_);fill:#10A2D5;}
	.st184{clip-path:url(#SVGID_51_);fill:#09A3D6;}
	.st185{clip-path:url(#SVGID_51_);fill:#09A5D7;}
	.st186{clip-path:url(#SVGID_51_);fill:#0AA6D8;}
	.st187{clip-path:url(#SVGID_51_);fill:#06A7D8;}
	.st188{clip-path:url(#SVGID_51_);fill:#0AA8D9;}
	.st189{clip-path:url(#SVGID_51_);fill:#0DA9DA;}
	.st190{clip-path:url(#SVGID_51_);fill:#10AADB;}
	.st191{clip-path:url(#SVGID_51_);fill:#0DABDA;}
	.st192{clip-path:url(#SVGID_51_);fill:#0EACDC;}
	.st193{clip-path:url(#SVGID_51_);fill:#0AADDC;}
	.st194{clip-path:url(#SVGID_51_);fill:#0FAEDC;}
	.st195{clip-path:url(#SVGID_51_);fill:#08AFDD;}
	.st196{clip-path:url(#SVGID_51_);fill:#0CB0DE;}
	.st197{clip-path:url(#SVGID_51_);fill:#07B1DE;}
	.st198{clip-path:url(#SVGID_51_);fill:#0AB2DF;}
	.st199{clip-path:url(#SVGID_51_);fill:#0EB3E0;}
	.st200{clip-path:url(#SVGID_51_);fill:#0CB4E0;}
	.st201{clip-path:url(#SVGID_51_);fill:#0CB5E1;}
	.st202{clip-path:url(#SVGID_51_);fill:#07B6E2;}
	.st203{clip-path:url(#SVGID_51_);fill:#08B8E3;}
	.st204{clip-path:url(#SVGID_51_);fill:#0EB8E3;}
	.st205{clip-path:url(#SVGID_51_);fill:#0EBAE5;}
	.st206{clip-path:url(#SVGID_51_);fill:#13BBE5;}
	.st207{clip-path:url(#SVGID_51_);fill:#0DBCE6;}
	.st208{clip-path:url(#SVGID_51_);fill:#09BCE7;}
	.st209{clip-path:url(#SVGID_51_);fill:#0FBDE7;}
	.st210{clip-path:url(#SVGID_51_);fill:#09BEE8;}
	.st211{clip-path:url(#SVGID_51_);fill:#0DBFE9;}
	.st212{clip-path:url(#SVGID_51_);fill:#07C1EB;}
	.st213{clip-path:url(#SVGID_51_);fill:#0AC1EA;}
	.st214{clip-path:url(#SVGID_51_);fill:#12C2EA;}
	.st215{clip-path:url(#SVGID_51_);fill:#18C2EA;}
	.st216{clip-path:url(#SVGID_51_);fill:#19C2E9;}
	.st217{clip-path:url(#SVGID_51_);fill:#1DC2EA;}
	.st218{clip-path:url(#SVGID_51_);fill:#22C3EA;}
	.st219{clip-path:url(#SVGID_51_);fill:#26C3EA;}
	.st220{clip-path:url(#SVGID_51_);fill:#25C3EA;}
	.st221{clip-path:url(#SVGID_51_);fill:#2AC3EA;}
	.st222{fill:url(#SVGID_52_);}
	.st223{fill:url(#SVGID_53_);}
	.st224{fill:url(#SVGID_54_);}
	.st225{fill:url(#SVGID_55_);}
	.st226{fill:url(#SVGID_56_);}
	.st227{fill:url(#SVGID_57_);}
	.st228{fill:url(#SVGID_58_);}
	.st229{fill:url(#SVGID_59_);}
	.st230{fill:url(#SVGID_60_);}
	.st231{fill:#243771;}
	.st232{fill:#1E3D73;}
	.st233{fill:#41C5E2;}
	.st234{fill:#09A7D3;}
	.st235{fill:url(#SVGID_61_);}
	.st236{fill:url(#SVGID_62_);}
	.st237{fill:url(#SVGID_63_);}
	.st238{fill:url(#SVGID_64_);}
	.st239{fill:url(#SVGID_65_);}
	.st240{fill:url(#SVGID_66_);}
	.st241{fill:url(#SVGID_67_);}
	.st242{fill:url(#SVGID_68_);}
</style>
<polygon class="st0" points="376.2,542.8 295.1,481.2 356,434.7 437,496.4 "/>
<polygon class="st0" points="444.7,595.3 383.9,549 429.5,514.2 490.3,560.4 "/>
<path class="st0" d="M325.2,561.1c-15.7,12-41.1,12-56.8,0c-15.7-12-15.7-31.4,0-43.4c15.7-12,41.1-12,56.8,0
	C340.9,529.7,340.9,549.1,325.2,561.1z"/>
<g>
	
		<radialGradient id="SVGID_1_" cx="515.7769" cy="447.9807" r="183.2197" gradientTransform="matrix(1.2069 0 0 1.5961 -69.2038 -345.7298)" gradientUnits="userSpaceOnUse">
		<stop  offset="0" style="stop-color:#2AC3EA"/>
		<stop  offset="6.596173e-002" style="stop-color:#2BBBE4"/>
		<stop  offset="0.1762" style="stop-color:#24AADA"/>
		<stop  offset="0.3162" style="stop-color:#1B91C9"/>
		<stop  offset="0.4457" style="stop-color:#1578B8"/>
		<stop  offset="1" style="stop-color:#232B62"/>
	</radialGradient>
	<path class="st1" d="M402.5,215.8l-111.2-84.9c-1.2-0.9-2.3-1-3.2-0.3l0,0l-59,45l57.3,166.5v34.5c0,4.7,2.2,10.2,4.9,12.3
		l15.2,11.6l40.7,118.1l58.4-44.4c0,0,0,0,0.1,0l0.1-0.1l0,0c1-0.8,1.6-2.6,1.6-5.1V228C407.4,223.3,405.2,217.8,402.5,215.8z"/>
	<linearGradient id="SVGID_2_" gradientUnits="userSpaceOnUse" x1="201.4455" y1="207.5547" x2="514.9119" y2="268.7783">
		<stop  offset="0" style="stop-color:#2AC3EA"/>
		<stop  offset="0.1174" style="stop-color:#2BC0E7"/>
		<stop  offset="0.2085" style="stop-color:#2AB9E3"/>
		<stop  offset="0.2908" style="stop-color:#25AEDC"/>
		<stop  offset="0.3678" style="stop-color:#1FA0D3"/>
		<stop  offset="0.4412" style="stop-color:#1A8EC7"/>
		<stop  offset="0.5109" style="stop-color:#1579B9"/>
		<stop  offset="0.515" style="stop-color:#1578B8"/>
		<stop  offset="1" style="stop-color:#273675"/>
	</linearGradient>
	<path class="st2" d="M402.5,215.8l-111.2-84.9c-1.2-0.9-2.3-1-3.2-0.3l0,0l-59,45l48.8,141.7l127.6-97.4
		C404.7,218.1,403.6,216.6,402.5,215.8z"/>
	
		<linearGradient id="SVGID_3_" gradientUnits="userSpaceOnUse" x1="197.5392" y1="279.156" x2="421.2411" y2="322.8475" gradientTransform="matrix(0.866 0.5 0 1 27.4391 -102.9169)">
		<stop  offset="0" style="stop-color:#2AC3EA"/>
		<stop  offset="6.596173e-002" style="stop-color:#2BBBE4"/>
		<stop  offset="0.1762" style="stop-color:#24AADA"/>
		<stop  offset="0.3162" style="stop-color:#1B91C9"/>
		<stop  offset="0.4457" style="stop-color:#1578B8"/>
		<stop  offset="1" style="stop-color:#273675"/>
	</linearGradient>
	<path class="st3" d="M343.8,518.3l-111.2-84.9c-2.7-2-4.9-7.5-4.9-12.3V180.5c0-4.7,2.2-6.9,4.9-4.9l111.2,84.9
		c2.7,2,4.9,7.5,4.9,12.3v240.7C348.6,518.2,346.4,520.4,343.8,518.3z"/>
	
		<linearGradient id="SVGID_4_" gradientUnits="userSpaceOnUse" x1="659.6956" y1="244.9721" x2="184.2577" y2="317.0349" gradientTransform="matrix(0.866 0.5 0 1 27.4391 -102.9169)">
		<stop  offset="0" style="stop-color:#2AC3EA"/>
		<stop  offset="6.596173e-002" style="stop-color:#2BBBE4"/>
		<stop  offset="0.1762" style="stop-color:#24AADA"/>
		<stop  offset="0.3162" style="stop-color:#1B91C9"/>
		<stop  offset="0.4457" style="stop-color:#1578B8"/>
		<stop  offset="1" style="stop-color:#273675"/>
	</linearGradient>
	<path class="st4" d="M340.1,509.2l-103.9-79.3c-2.5-1.9-4.5-7-4.5-11.5V189.3c0-4.4,2-6.4,4.5-4.5L340.1,264
		c2.5,1.9,4.5,7,4.5,11.5v229.1C344.6,509,342.6,511.1,340.1,509.2z"/>
	<linearGradient id="SVGID_5_" gradientUnits="userSpaceOnUse" x1="355.0298" y1="348.8259" x2="201.8813" y2="294.3358">
		<stop  offset="0" style="stop-color:#2AC3EA"/>
		<stop  offset="1.409870e-002" style="stop-color:#2BBBE4"/>
		<stop  offset="3.765760e-002" style="stop-color:#24AADA"/>
		<stop  offset="6.757824e-002" style="stop-color:#1B91C9"/>
		<stop  offset="9.525820e-002" style="stop-color:#1578B8"/>
		<stop  offset="0.2496" style="stop-color:#1E66A3"/>
		<stop  offset="0.4703" style="stop-color:#23518D"/>
		<stop  offset="0.6759" style="stop-color:#254280"/>
		<stop  offset="0.8587" style="stop-color:#273978"/>
		<stop  offset="1" style="stop-color:#273675"/>
	</linearGradient>
	<path class="st5" d="M300.5,233.8l-64.2-49.1c-2.5-1.9-4.5,0.1-4.5,4.5v229.1c0,3.4,1.2,7.1,2.9,9.6l65.9-50.3V233.8z"/>
	<linearGradient id="SVGID_6_" gradientUnits="userSpaceOnUse" x1="514.3802" y1="312.6479" x2="222.5186" y2="356.8857">
		<stop  offset="0" style="stop-color:#2AC3EA"/>
		<stop  offset="6.596173e-002" style="stop-color:#2BBBE4"/>
		<stop  offset="0.1762" style="stop-color:#24AADA"/>
		<stop  offset="0.3162" style="stop-color:#1B91C9"/>
		<stop  offset="0.4457" style="stop-color:#1578B8"/>
		<stop  offset="1" style="stop-color:#273675"/>
	</linearGradient>
	<path class="st6" d="M343.6,506.1l-103.9-79.3c-2.5-1.9-4.5-7-4.5-11.5V186.2c0-0.7,0.1-1.4,0.2-1.9c-2.1-0.9-3.7,1.1-3.7,5v229.1
		c0,4.4,2,9.5,4.5,11.5l103.9,79.3c2.1,1.6,3.9,0.4,4.4-2.6C344.2,506.4,343.9,506.3,343.6,506.1z"/>
	<linearGradient id="SVGID_7_" gradientUnits="userSpaceOnUse" x1="500.8934" y1="418.0834" x2="284.692" y2="311.7825">
		<stop  offset="0" style="stop-color:#2AC3EA"/>
		<stop  offset="2.796038e-002" style="stop-color:#2BBBE4"/>
		<stop  offset="7.468214e-002" style="stop-color:#24AADA"/>
		<stop  offset="0.134" style="stop-color:#1B91C9"/>
		<stop  offset="0.1889" style="stop-color:#1578B8"/>
		<stop  offset="1" style="stop-color:#273675"/>
	</linearGradient>
	<path class="st7" d="M340.1,264l-51.9-39.7v154.8c0,4.4,2,9.5,4.5,11.5l51.9,39.7V275.5C344.6,271.1,342.6,266,340.1,264z"/>
	<g>
		<linearGradient id="SVGID_8_" gradientUnits="userSpaceOnUse" x1="208.0421" y1="175.8468" x2="520.8955" y2="236.9507">
			<stop  offset="0" style="stop-color:#2AC3EA"/>
			<stop  offset="0.1174" style="stop-color:#2BC0E7"/>
			<stop  offset="0.2085" style="stop-color:#2AB9E3"/>
			<stop  offset="0.2908" style="stop-color:#25AEDC"/>
			<stop  offset="0.3678" style="stop-color:#1FA0D3"/>
			<stop  offset="0.4412" style="stop-color:#1A8EC7"/>
			<stop  offset="0.5109" style="stop-color:#1579B9"/>
			<stop  offset="0.515" style="stop-color:#1578B8"/>
			<stop  offset="1" style="stop-color:#273675"/>
		</linearGradient>
		<path class="st8" d="M232.5,175.6l111.2,84.9c1.1,0.9,2.2,2.3,3,4.1l58.7-44.8c-0.8-1.7-1.8-3.2-3-4l-111.2-84.9
			c-1.2-0.9-2.3-1-3.2-0.3l0,0l-58.5,44.6C230.4,174.6,231.4,174.7,232.5,175.6z"/>
		<linearGradient id="SVGID_9_" gradientUnits="userSpaceOnUse" x1="229.1227" y1="175.4519" x2="229.1634" y2="175.4599">
			<stop  offset="0" style="stop-color:#2AC3EA"/>
			<stop  offset="0.1174" style="stop-color:#2BC0E7"/>
			<stop  offset="0.2085" style="stop-color:#2AB9E3"/>
			<stop  offset="0.2908" style="stop-color:#25AEDC"/>
			<stop  offset="0.3678" style="stop-color:#1FA0D3"/>
			<stop  offset="0.4412" style="stop-color:#1A8EC7"/>
			<stop  offset="0.5109" style="stop-color:#1579B9"/>
			<stop  offset="0.515" style="stop-color:#1578B8"/>
			<stop  offset="1" style="stop-color:#273675"/>
		</linearGradient>
		<path class="st9" d="M229.2,175.4L229.2,175.4L229.2,175.4C229.1,175.5,229.1,175.5,229.2,175.4z"/>
	</g>
	<linearGradient id="SVGID_10_" gradientUnits="userSpaceOnUse" x1="229.1227" y1="175.4519" x2="229.1634" y2="175.4599">
		<stop  offset="0" style="stop-color:#2AC3EA"/>
		<stop  offset="0.1174" style="stop-color:#2BC0E7"/>
		<stop  offset="0.2085" style="stop-color:#2AB9E3"/>
		<stop  offset="0.2908" style="stop-color:#25AEDC"/>
		<stop  offset="0.3678" style="stop-color:#1FA0D3"/>
		<stop  offset="0.4412" style="stop-color:#1A8EC7"/>
		<stop  offset="0.5109" style="stop-color:#1579B9"/>
		<stop  offset="0.515" style="stop-color:#1578B8"/>
		<stop  offset="1" style="stop-color:#273675"/>
	</linearGradient>
	<path class="st10" d="M229.2,175.4L229.2,175.4L229.2,175.4C229.1,175.5,229.1,175.5,229.2,175.4z"/>
	<g>
		<path class="st11" d="M392.3,219.1c-5.1-2.9-44,33.6-44,33.6s2.2,0.5,4.6,5.3c0.3,0.6,1.3,0.5,2.7-0.1l31.8-24.3
			c5.5-4.8,9.5-8.4,9.5-8.4S397.4,221.9,392.3,219.1z"/>
		<path class="st12" d="M347,262.5c-0.8-1.8-2.1-3.1-3.3-3.9l-111.2-84.9c-0.2-0.1-0.4-0.3-0.5-0.4l-2.4,1.9c0.8-0.5,1.9-0.4,3,0.5
			l111.2,84.9c1.1,0.9,2.2,2.3,3,4.1l58.7-44.8c-0.2-0.5-0.5-1-0.7-1.4L347,262.5z"/>
		<linearGradient id="SVGID_11_" gradientUnits="userSpaceOnUse" x1="229.1227" y1="173.4809" x2="229.1634" y2="173.4889">
			<stop  offset="0" style="stop-color:#2AC3EA"/>
			<stop  offset="0.1174" style="stop-color:#2BC0E7"/>
			<stop  offset="0.2085" style="stop-color:#2AB9E3"/>
			<stop  offset="0.2908" style="stop-color:#25AEDC"/>
			<stop  offset="0.3678" style="stop-color:#1FA0D3"/>
			<stop  offset="0.4412" style="stop-color:#1A8EC7"/>
			<stop  offset="0.5109" style="stop-color:#1579B9"/>
			<stop  offset="0.515" style="stop-color:#1578B8"/>
			<stop  offset="1" style="stop-color:#273675"/>
		</linearGradient>
		<path class="st13" d="M229.2,173.5L229.2,173.5L229.2,173.5C229.1,173.5,229.1,173.5,229.2,173.5z"/>
	</g>
	<path class="st14" d="M360.6,483.9c-0.4,0-0.8-0.1-1.1-0.4c-0.9-0.7-1.4-2.2-1.4-4.3V288.8c0-3.6,1.7-7.8,3.7-9.4l33.3-25.4
		c1-0.8,2-0.8,2.7-0.2c0.9,0.7,1.4,2.2,1.4,4.3v190.5c0,3.6-1.7,7.8-3.7,9.4l-33.3,25.4C361.7,483.7,361.2,483.9,360.6,483.9z
		 M396.7,254.5c-0.4,0-0.8,0.2-1.2,0.5l-33.3,25.4c-1.8,1.4-3.3,5.2-3.3,8.4v190.5c0,1.6,0.4,2.8,1,3.3c0.5,0.4,1.2,0.3,1.9-0.2
		l33.3-25.4c1.8-1.4,3.3-5.2,3.3-8.4V258c0-1.6-0.4-2.8-1-3.3C397.2,254.5,397,254.5,396.7,254.5z"/>
	<path class="st15" d="M230.8,187.3l-73.2,55.9v243.2l73.2-55.9c1.5-1.2,2.8-4.1,2.8-6.4V189.4C233.6,187.1,232.3,186.1,230.8,187.3
		z"/>
	<path class="st15" d="M233,188.6l-73.2,55.9v243.2l73.2-55.9c1.5-1.2,2.8-4.1,2.8-6.4V190.8C235.8,188.4,234.6,187.4,233,188.6z"/>
	<polygon class="st16" points="297.6,456.2 306.1,449.8 306.1,238.1 299.2,232.8 	"/>
	
		<radialGradient id="SVGID_12_" cx="446.8107" cy="439.7906" r="167.4897" gradientTransform="matrix(1.2069 0 0 1.5961 -69.2038 -345.7298)" gradientUnits="userSpaceOnUse">
		<stop  offset="0" style="stop-color:#2AC3EA"/>
		<stop  offset="6.596173e-002" style="stop-color:#2BBBE4"/>
		<stop  offset="0.1762" style="stop-color:#24AADA"/>
		<stop  offset="0.3162" style="stop-color:#1B91C9"/>
		<stop  offset="0.4457" style="stop-color:#1578B8"/>
		<stop  offset="1" style="stop-color:#232B62"/>
	</radialGradient>
	<path class="st17" d="M252.6,197.2v218c0,4.7,2.2,10.2,4.9,12.3l36.9,28.4c2.7,2,4.9-0.1,4.9-4.9V232.8L252.6,197.2z"/>
	<linearGradient id="SVGID_13_" gradientUnits="userSpaceOnUse" x1="133.4975" y1="315.4277" x2="321.553" y2="365.0193">
		<stop  offset="0" style="stop-color:#2AC3EA"/>
		<stop  offset="6.596173e-002" style="stop-color:#2BBBE4"/>
		<stop  offset="0.1762" style="stop-color:#24AADA"/>
		<stop  offset="0.3162" style="stop-color:#1B91C9"/>
		<stop  offset="0.4457" style="stop-color:#1578B8"/>
		<stop  offset="1" style="stop-color:#232B62"/>
	</linearGradient>
	<path class="st18" d="M340.1,264l-34.7-26.5v218.1c0,4.7,2.2,10.2,4.9,12.3l34.4,26.4V275.5C344.6,271.1,342.6,266,340.1,264z"/>
	<polygon class="st19" points="157.6,243.2 159.9,244.9 159.9,488.1 157.6,486.4 	"/>
	<linearGradient id="SVGID_14_" gradientUnits="userSpaceOnUse" x1="236.0001" y1="351.1948" x2="137.0459" y2="315.987">
		<stop  offset="0" style="stop-color:#2AC3EA"/>
		<stop  offset="1.409870e-002" style="stop-color:#2BBBE4"/>
		<stop  offset="3.765760e-002" style="stop-color:#24AADA"/>
		<stop  offset="6.757824e-002" style="stop-color:#1B91C9"/>
		<stop  offset="9.525820e-002" style="stop-color:#1578B8"/>
		<stop  offset="0.2496" style="stop-color:#1E66A3"/>
		<stop  offset="0.4703" style="stop-color:#23518D"/>
		<stop  offset="0.6759" style="stop-color:#254280"/>
		<stop  offset="0.8587" style="stop-color:#273978"/>
		<stop  offset="1" style="stop-color:#273675"/>
	</linearGradient>
	<path class="st20" d="M159.9,244.9l73.2-55.9c0.8-0.6,1.5-0.6,2-0.3l-2.2-1.7l0,0c-0.5-0.4-1.2-0.4-2,0.2l-73.2,55.9v243.2l2.3-1.7
		V244.9z"/>
	<path class="st14" d="M344.6,484.4L315.2,462c-2.3-1.7-4.1-6.4-4.1-10.5V241.9l-0.8-0.6v210.2c0,4.4,2,9.5,4.5,11.4l29.8,22.7
		V484.4z"/>
	<g>
		<path class="st14" d="M291,308.3c-0.4,0-0.8-0.2-1.2-0.5l-27.4-20.9c-1.5-1.1-2.6-4-2.6-6.6V223c0-1.4,0.4-2.5,1-3.1
			c0.6-0.4,1.3-0.4,2,0.2l27.4,20.9c1.5,1.1,2.6,4,2.6,6.6V305c0,1.4-0.4,2.6-1,3.1C291.6,308.2,291.3,308.3,291,308.3z
			 M261.7,220.7c-0.1,0-0.3,0-0.4,0.1c-0.4,0.3-0.6,1.1-0.6,2.1v57.4c0,2.1,1,4.7,2.2,5.6l27.4,20.9c0.3,0.2,0.8,0.5,1.1,0.2
			c0.4-0.3,0.6-1.1,0.6-2.1v-57.4c0-2.1-1-4.7-2.2-5.6l-27.4-20.9C262.3,220.9,262,220.7,261.7,220.7z"/>
		<path class="st14" d="M291,333.1c-0.4,0-0.8-0.2-1.2-0.5l-27.4-20.9c-1.5-1.1-2.6-4-2.6-6.6v-5.9c0-1.4,0.4-2.6,1-3.1
			c0.6-0.4,1.3-0.4,2,0.2l27.4,20.9c1.5,1.1,2.6,4,2.6,6.6v5.9c0,1.4-0.4,2.6-1,3.1C291.6,333,291.3,333.1,291,333.1z M261.7,297.1
			c-0.1,0-0.3,0-0.4,0.1c-0.4,0.3-0.6,1.1-0.6,2.1v5.9c0,2.1,1,4.7,2.2,5.6l27.4,20.9c0.3,0.2,0.8,0.5,1.1,0.2
			c0.4-0.3,0.6-1.1,0.6-2.1v-5.9c0-2.1-1-4.7-2.2-5.6l-27.4-20.9C262.3,297.2,262,297.1,261.7,297.1z"/>
		<path class="st14" d="M291,357.9c-0.4,0-0.8-0.2-1.2-0.5l-27.4-20.9c-1.5-1.1-2.6-4-2.6-6.6v-5.9c0-1.4,0.4-2.6,1-3.1
			c0.6-0.4,1.3-0.4,2,0.2l27.4,20.9c1.5,1.1,2.6,4,2.6,6.6v5.9c0,1.4-0.4,2.6-1,3.1C291.6,357.8,291.3,357.9,291,357.9z
			 M261.7,321.8c-0.1,0-0.3,0-0.4,0.1c-0.4,0.3-0.6,1.1-0.6,2.1v5.9c0,2.1,1,4.7,2.2,5.6l27.4,20.9c0.3,0.2,0.8,0.5,1.1,0.2
			c0.4-0.3,0.6-1.1,0.6-2.1v-5.9c0-2.1-1-4.7-2.2-5.6l-27.4-20.9C262.3,322,262,321.8,261.7,321.8z"/>
		<path class="st14" d="M291,382.7c-0.4,0-0.8-0.2-1.2-0.5l-27.4-20.9c-1.5-1.1-2.6-4-2.6-6.6v-5.9c0-1.4,0.4-2.6,1-3.1
			c0.6-0.4,1.3-0.4,2,0.2l27.4,20.9c1.5,1.1,2.6,4,2.6,6.6v5.9c0,1.4-0.4,2.6-1,3.1C291.6,382.6,291.3,382.7,291,382.7z
			 M261.7,346.6c-0.1,0-0.3,0-0.4,0.1c-0.4,0.3-0.6,1.1-0.6,2.1v5.9c0,2.1,1,4.7,2.2,5.6l27.4,20.9c0.3,0.2,0.8,0.5,1.1,0.2
			c0.4-0.3,0.6-1.1,0.6-2.1v-5.9c0-2.1-1-4.7-2.2-5.6l-27.4-20.9C262.3,346.8,262,346.6,261.7,346.6z"/>
		<path class="st14" d="M291,407.4c-0.4,0-0.8-0.2-1.2-0.5l-27.4-20.9c-1.5-1.1-2.6-4-2.6-6.6v-5.9c0-1.4,0.4-2.6,1-3.1
			c0.6-0.4,1.3-0.4,2,0.2l27.4,20.9c1.5,1.1,2.6,4,2.6,6.6v5.9c0,1.4-0.4,2.6-1,3.1C291.6,407.3,291.3,407.4,291,407.4z
			 M261.7,371.4c-0.1,0-0.3,0-0.4,0.1c-0.4,0.3-0.6,1.1-0.6,2.1v5.9c0,2.1,1,4.7,2.2,5.6l27.4,20.9c0.3,0.2,0.8,0.5,1.1,0.2
			c0.4-0.3,0.6-1.1,0.6-2.1v-5.9c0-2.1-1-4.7-2.2-5.6l-27.4-20.9C262.3,371.5,262,371.4,261.7,371.4z"/>
		<path class="st14" d="M291,432.2c-0.4,0-0.8-0.2-1.2-0.5l-27.4-20.9c-1.5-1.1-2.6-4-2.6-6.6v-5.9c0-1.4,0.4-2.6,1-3.1
			c0.6-0.4,1.3-0.4,2,0.2l27.4,20.9c1.5,1.1,2.6,4,2.6,6.6v5.9c0,1.4-0.4,2.6-1,3.1C291.6,432.1,291.3,432.2,291,432.2z
			 M261.7,396.2c-0.1,0-0.3,0-0.4,0.1c-0.4,0.3-0.6,1.1-0.6,2.1v5.9c0,2.1,1,4.7,2.2,5.6l27.4,20.9c0.3,0.2,0.8,0.5,1.1,0.2
			c0.4-0.3,0.6-1.1,0.6-2.1V423c0-2.1-1-4.7-2.2-5.6l-27.4-20.9C262.3,396.3,262,396.2,261.7,396.2z"/>
	</g>
	<path class="st15" d="M344.6,504.6V275.5c0-4.4-2-9.5-4.5-11.5l-54.9-41.9v245.1l0,0l54.9,41.9C342.6,511.1,344.6,509,344.6,504.6z
		"/>
	<path class="st15" d="M342,507.6l-54.9-41.9l0,0V223.6l-1.9-1.4v245.1l0,0l54.9,41.9c1.6,1.2,3,0.8,3.8-0.8
		C343.3,508.4,342.7,508.2,342,507.6z"/>
	<path class="st21" d="M292,355.8l-0.1-0.1c-0.5-0.4-0.9-1.4-0.9-2.3v-15.7c0-0.9,0.4-1.3,0.9-0.9l0.1,0.1c0.5,0.4,0.9,1.4,0.9,2.3
		v15.7C292.9,355.8,292.5,356.2,292,355.8z"/>
	<path class="st21" d="M163.2,344.5l-0.1,0.1c-0.5,0.4-0.9,1.4-0.9,2.3v15.7c0,0.9,0.4,1.3,0.9,0.9l0.1-0.1c0.5-0.4,0.9-1.4,0.9-2.3
		v-15.7C164.1,344.6,163.7,344.2,163.2,344.5z"/>
	<g>
		<path class="st22" d="M234.2,203.6h-1.5v-6.4c0-0.5,0.3-1,0.7-1l0,0c0.4,0,0.7,0.4,0.7,1V203.6z"/>
		<path class="st22" d="M232.8,204.1h1.5v6.4c0,0.5-0.3,1-0.7,1l0,0c-0.4,0-0.7-0.4-0.7-1V204.1z"/>
	</g>
	<g>
		<path class="st22" d="M234.2,408.4h-1.5v-6.4c0-0.5,0.3-1,0.7-1l0,0c0.4,0,0.7,0.4,0.7,1V408.4z"/>
		<path class="st22" d="M232.8,408.9h1.5v6.4c0,0.5-0.3,1-0.7,1l0,0c-0.4,0-0.7-0.4-0.7-1V408.9z"/>
	</g>
	<g>
		<polygon class="st14" points="378.3,276.5 363.9,287.5 363.9,285.5 378.3,274.5 		"/>
		<polygon class="st14" points="394.5,264.1 380.1,275.2 380.1,273.1 394.5,262.1 		"/>
		<polygon class="st19" points="377.8,274.9 377.8,276.2 363.9,286.9 363.9,287.5 378.3,276.5 378.3,274.5 		"/>
		<polygon class="st19" points="394,262.5 394,263.9 380.1,274.5 380.1,275.2 394.5,264.1 394.5,262.1 		"/>
	</g>
	<g>
		<polygon class="st14" points="378.3,282.7 363.9,293.7 363.9,291.7 378.3,280.7 		"/>
		<polygon class="st14" points="394.5,270.3 380.1,281.3 380.1,279.3 394.5,268.3 		"/>
		<polygon class="st19" points="377.8,281 377.8,282.4 363.9,293.1 363.9,293.7 378.3,282.7 378.3,280.7 		"/>
		<polygon class="st19" points="394,268.7 394,270 380.1,280.7 380.1,281.3 394.5,270.3 394.5,268.3 		"/>
	</g>
	<g>
		<polygon class="st14" points="378.3,288.9 363.9,299.9 363.9,297.9 378.3,286.8 		"/>
		<polygon class="st14" points="394.5,276.5 380.1,287.5 380.1,285.5 394.5,274.5 		"/>
		<polygon class="st19" points="377.8,287.2 377.8,288.6 363.9,299.3 363.9,299.9 378.3,288.9 378.3,286.8 		"/>
		<polygon class="st19" points="394,274.9 394,276.2 380.1,286.9 380.1,287.5 394.5,276.5 394.5,274.5 		"/>
	</g>
	<g>
		
			<linearGradient id="SVGID_15_" gradientUnits="userSpaceOnUse" x1="313.8198" y1="203.2274" x2="386.8114" y2="217.4835" gradientTransform="matrix(0.866 0.5 0 1.1547 38.518 -184.7345)">
			<stop  offset="4.830920e-003" style="stop-color:#E0F2F5"/>
			<stop  offset="0.1521" style="stop-color:#D6EEF3"/>
			<stop  offset="0.3982" style="stop-color:#BCE4EE"/>
			<stop  offset="0.7108" style="stop-color:#8FD4E5"/>
			<stop  offset="1" style="stop-color:#57C5DD"/>
		</linearGradient>
		<polygon class="st23" points="348.3,252.7 314.6,226.9 314.6,196.4 348.3,222.2 		"/>
		<polygon class="st24" points="347.5,224 315.4,199.4 315.4,198.4 347.5,222.9 		"/>
		
			<linearGradient id="SVGID_16_" gradientUnits="userSpaceOnUse" x1="408.3615" y1="254.1761" x2="349.2382" y2="227.6034" gradientTransform="matrix(0.866 -0.5 0 1.1547 46.5142 131.951)">
			<stop  offset="0" style="stop-color:#9AC5D2"/>
			<stop  offset="0.2888" style="stop-color:#8FC5D4"/>
			<stop  offset="0.77" style="stop-color:#6FC5D9"/>
			<stop  offset="1" style="stop-color:#57C5DD"/>
		</linearGradient>
		<polygon class="st25" points="392.3,219.1 348.3,252.7 348.3,222.2 392.3,188.5 		"/>
		
			<linearGradient id="SVGID_17_" gradientUnits="userSpaceOnUse" x1="310.6627" y1="204.5185" x2="373.2233" y2="164.5027" gradientTransform="matrix(0.866 0.5 -1 0.5774 260.8252 -83.3806)">
			<stop  offset="4.830920e-003" style="stop-color:#E0F2F5"/>
			<stop  offset="0.1521" style="stop-color:#D6EEF3"/>
			<stop  offset="0.3982" style="stop-color:#BCE4EE"/>
			<stop  offset="0.7108" style="stop-color:#8FD4E5"/>
			<stop  offset="1" style="stop-color:#57C5DD"/>
		</linearGradient>
		<polygon class="st26" points="358.6,162.8 314.6,196.4 348.3,222.2 392.3,188.5 		"/>
		<polygon class="st24" points="332,209.7 376,176.1 375,175.4 331,209 		"/>
		<polygon class="st24" points="331,209 331,210.5 332,211.1 332,209.7 		"/>
	</g>
</g>
<g>
	<path class="st0" d="M272.2,540.1L272.2,540.1l-74-56.5l0,0c-0.1-0.1-0.2-0.1-0.3-0.2c0,0,0,0,0,0c-0.1,0-0.2,0-0.3,0
		c0,0-0.1,0-0.1,0c-0.1,0-0.2,0-0.3,0.1c-0.1,0.1-0.3,0.1-0.5,0.3L55.6,591.4c-0.2,0.1-0.3,0.3-0.5,0.5c0,0,0,0,0,0
		c-1.1,1.2-1.9,3.6-1.9,5.6c0,1.3,0.3,2.1,0.8,2.5l0,0l74.1,56.5l0,0c0.4,0.4,1,0.4,1.6-0.1l141.1-107.6c1.3-1,2.4-3.7,2.4-6.1
		C273.2,541.4,272.8,540.5,272.2,540.1z"/>
	<g>
		<g>
			
				<radialGradient id="SVGID_18_" cx="221.183" cy="514.7983" r="39.5526" gradientTransform="matrix(1.2069 0 0 1.5961 -69.2038 -345.7298)" gradientUnits="userSpaceOnUse">
				<stop  offset="0" style="stop-color:#2AC3EA"/>
				<stop  offset="7.091964e-002" style="stop-color:#2ABBE4"/>
				<stop  offset="0.1894" style="stop-color:#20AADA"/>
				<stop  offset="0.3294" style="stop-color:#1093CA"/>
				<stop  offset="0.3873" style="stop-color:#1386C2"/>
				<stop  offset="0.4457" style="stop-color:#1578B8"/>
				<stop  offset="1" style="stop-color:#232B62"/>
			</radialGradient>
			<path class="st27" d="M228,419.8v92.8c0,1.8-0.4,3.1-1.1,3.6c-0.7,0.5-1.7,0.3-2.9-0.6l-55.5-42.4c-2.9-2.2-5.4-7.8-5.4-12.3
				v-92.8h-2.8V461c0,5.8,3,12.6,6.8,15.5l55.5,42.4c1.2,0.9,2.3,1.3,3.4,1.3c0.3,0,0.5,0,0.7-0.1l-0.3,0.4l1.3-0.7l0,0
				c0.2-0.1,0.4-0.2,0.6-0.4c1.6-1.2,2.5-3.6,2.5-6.8v-92.8H228z"/>
			<g>
				<path class="st19" d="M224.6,521c-1.1,0-2.2-0.5-3.4-1.3l-55.5-42.4c-3.8-2.9-6.8-9.7-6.8-15.5V369h2.8v92.8
					c0,4.4,2.5,10.1,5.4,12.3l55.5,42.4c1.1,0.9,2.2,1.1,2.9,0.6c0.7-0.5,1.1-1.8,1.1-3.6v-92.8h2.8v92.8c0,3.2-0.9,5.6-2.5,6.8
					C226.2,520.7,225.4,521,224.6,521z"/>
			</g>
		</g>
		<path class="st19" d="M227.4,458.4l-127.2,97.1c0,1.6,0,3.3,0,4.9l127.2-97.1V458.4z"/>
		
			<radialGradient id="SVGID_19_" cx="238.3336" cy="576.4786" r="114.1838" gradientTransform="matrix(1.2069 0 0 1.5961 -69.2038 -345.7298)" gradientUnits="userSpaceOnUse">
			<stop  offset="0" style="stop-color:#2AC3EA"/>
			<stop  offset="7.091964e-002" style="stop-color:#2ABBE4"/>
			<stop  offset="0.1894" style="stop-color:#20AADA"/>
			<stop  offset="0.3294" style="stop-color:#1093CA"/>
			<stop  offset="0.3873" style="stop-color:#1386C2"/>
			<stop  offset="0.4457" style="stop-color:#1578B8"/>
			<stop  offset="1" style="stop-color:#232B62"/>
		</radialGradient>
		<path class="st28" d="M228.6,459.3l-128.4,98c0,1.6,0,3.3,0,4.9l128.4-98V459.3z"/>
		<polygon class="st15" points="228.6,459.3 228.6,437.7 101.4,534.8 102.2,555.8 		"/>
		<g>
			
				<radialGradient id="SVGID_20_" cx="114.6325" cy="576.5185" r="39.5526" gradientTransform="matrix(1.2069 0 0 1.5961 -69.2038 -345.7298)" gradientUnits="userSpaceOnUse">
				<stop  offset="0" style="stop-color:#2AC3EA"/>
				<stop  offset="7.091964e-002" style="stop-color:#2ABBE4"/>
				<stop  offset="0.1894" style="stop-color:#20AADA"/>
				<stop  offset="0.3294" style="stop-color:#1093CA"/>
				<stop  offset="0.3873" style="stop-color:#1386C2"/>
				<stop  offset="0.4457" style="stop-color:#1578B8"/>
				<stop  offset="1" style="stop-color:#232B62"/>
			</radialGradient>
			<path class="st29" d="M99.4,518.3v92.8c0,1.8-0.4,3.1-1.1,3.6c-0.7,0.5-1.7,0.3-2.9-0.6l-55.5-42.4c-2.9-2.2-5.4-7.8-5.4-12.3
				v-92.8h-2.8v92.8c0,5.8,3,12.6,6.8,15.5l55.5,42.4c1.2,0.9,2.3,1.3,3.4,1.3c0.3,0,0.5,0,0.7-0.1l-0.3,0.4l1.3-0.7l0,0
				c0.2-0.1,0.4-0.2,0.6-0.4c1.6-1.2,2.5-3.6,2.5-6.8v-92.8H99.4z"/>
			<g>
				<path class="st19" d="M96,619.5c-1.1,0-2.2-0.5-3.4-1.3L37,575.8c-3.8-2.9-6.8-9.7-6.8-15.5v-92.8h2.8v92.8
					c0,4.4,2.5,10.1,5.4,12.3L94,615c1.1,0.9,2.2,1.1,2.9,0.6c0.7-0.5,1.1-1.8,1.1-3.6v-92.8h2.8v92.8c0,3.2-0.9,5.6-2.5,6.8
					C97.6,619.3,96.8,619.5,96,619.5z"/>
			</g>
		</g>
		<g>
			<polygon class="st19" points="249.5,415.4 166.6,352.1 4.9,482.6 88,545.9 			"/>
			<polygon class="st19" points="10.6,477.9 4.9,482.6 88,545.9 93.7,541.3 			"/>
			
				<radialGradient id="SVGID_21_" cx="140.4918" cy="438.6351" r="159.3677" gradientTransform="matrix(1.2069 0 0 1.5961 -69.2038 -345.7298)" gradientUnits="userSpaceOnUse">
				<stop  offset="0" style="stop-color:#2AC3EA"/>
				<stop  offset="6.596173e-002" style="stop-color:#2BBBE4"/>
				<stop  offset="0.1762" style="stop-color:#24AADA"/>
				<stop  offset="0.3162" style="stop-color:#1B91C9"/>
				<stop  offset="0.4457" style="stop-color:#1578B8"/>
				<stop  offset="1" style="stop-color:#232B62"/>
			</radialGradient>
			<path class="st30" d="M247.9,425.2L89.8,545.8c-1.5,1.1-2.7-0.1-2.7-2.7l0,0c0-2.6,1.2-5.7,2.7-6.8l158.1-120.6
				c1.5-1.1,2.7,0.1,2.7,2.7l0,0C250.6,421,249.4,424,247.9,425.2z"/>
			<path class="st19" d="M164.8,361.8L6.7,482.4c-1.5,1.1-2.7-0.1-2.7-2.7l0,0c0-2.6,1.2-5.7,2.7-6.8l158.1-120.6
				c1.5-1.1,2.7,0.1,2.7,2.7l0,0C167.5,357.6,166.3,360.7,164.8,361.8z"/>
			<g>
				
					<radialGradient id="SVGID_22_" cx="45.6202" cy="439.1224" r="312.7897" gradientTransform="matrix(1.2069 0 0 1.5961 -69.2038 -345.7298)" gradientUnits="userSpaceOnUse">
					<stop  offset="0" style="stop-color:#2AC3EA"/>
					<stop  offset="0.1174" style="stop-color:#2BC0E7"/>
					<stop  offset="0.2085" style="stop-color:#2AB9E3"/>
					<stop  offset="0.2908" style="stop-color:#25AEDC"/>
					<stop  offset="0.3678" style="stop-color:#1FA0D3"/>
					<stop  offset="0.4412" style="stop-color:#1A8EC7"/>
					<stop  offset="0.5109" style="stop-color:#1579B9"/>
					<stop  offset="0.515" style="stop-color:#1578B8"/>
					<stop  offset="1" style="stop-color:#273675"/>
				</radialGradient>
				<path class="st31" d="M88.7,537.5c0.3-0.5,0.7-0.9,1.1-1.2l158.1-120.6c0.6-0.5,1.2-0.5,1.6-0.3l0,0l-83-63.3l0,0
					c-0.5-0.4-1.1-0.3-1.8,0.2L6.7,472.9c-0.4,0.3-0.8,0.7-1.1,1.2L88.7,537.5z"/>
			</g>
			<path class="st12" d="M247.5,413.8L89.9,534c-0.4,0.3-1,0.5-1.3,1.1L6.9,472.7l-0.2,0.1c-0.4,0.3-0.8,0.7-1.1,1.2l83.1,63.4
				c0.3-0.5,0.7-0.9,1.1-1.2l158.1-120.6c0.6-0.5,1.2-0.5,1.6-0.3l0,0L247.5,413.8z"/>
		</g>
	</g>
	<g>
		<path class="st11" d="M119.4,463.4l45-34.4c0.7-0.5,0.6-1.4-0.2-2L135.3,405c-0.8-0.6-1.9-0.6-2.6-0.1l-45,34.4
			c-0.7,0.5-0.6,1.4,0.2,2l28.9,22.1C117.6,463.8,118.7,463.9,119.4,463.4z"/>
		
			<linearGradient id="SVGID_23_" gradientUnits="userSpaceOnUse" x1="-6.2889" y1="430.6343" x2="27.2048" y2="430.6343" gradientTransform="matrix(-1 0 0 1 111.2894 0)">
			<stop  offset="0" style="stop-color:#B7256E"/>
			<stop  offset="2.061403e-002" style="stop-color:#BB2A6E"/>
			<stop  offset="0.1286" style="stop-color:#CC416E"/>
			<stop  offset="0.2521" style="stop-color:#DB506D"/>
			<stop  offset="0.3988" style="stop-color:#E65B6D"/>
			<stop  offset="0.5907" style="stop-color:#EE626C"/>
			<stop  offset="1" style="stop-color:#F1646C"/>
		</linearGradient>
		<path class="st32" d="M83.7,435.5L83.7,435.5l45.8-34.9c0.7-0.5,1.9-0.4,2.6,0.1l29.6,22.6l1-0.5l-0.3,1.8l0,0
			c0,0.3-0.2,0.5-0.4,0.7l-46.2,35.3c-0.7,0.5-1.9,0.4-2.6-0.1l-29.7-22.6c-0.4-0.3-0.6-0.6-0.6-1l0,0l-0.3-1.8L83.7,435.5z"/>
		
			<linearGradient id="SVGID_24_" gradientUnits="userSpaceOnUse" x1="31.5337" y1="426.5251" x2="-32.1551" y2="429.9264" gradientTransform="matrix(-1 0 0 1 111.2894 0)">
			<stop  offset="0" style="stop-color:#B7256E"/>
			<stop  offset="1" style="stop-color:#681B58"/>
		</linearGradient>
		<path class="st33" d="M115.6,459.1l46.5-35.5c0.7-0.5,0.6-1.4-0.2-2l-29.9-22.8c-0.8-0.6-2-0.7-2.6-0.1l-46.5,35.5
			c-0.7,0.5-0.6,1.4,0.2,2l29.9,22.8C113.8,459.5,115,459.6,115.6,459.1z"/>
		
			<radialGradient id="SVGID_25_" cx="126.8409" cy="488.9211" r="27.111" gradientTransform="matrix(1.2069 0 0 1.5961 -69.2038 -345.7298)" gradientUnits="userSpaceOnUse">
			<stop  offset="0" style="stop-color:#F1646C"/>
			<stop  offset="1" style="stop-color:#B7256E"/>
		</radialGradient>
		<path class="st34" d="M162.6,422.2l-0.4-1.6l-1.3-0.2l-28.8-22c-0.8-0.6-2-0.7-2.6-0.1l-45.2,34.5l-1.4,0l-0.4,1.8
			c0,0.4,0.2,0.9,0.6,1.2l29.9,22.8c0.8,0.6,2,0.7,2.6,0.1l46.5-35.5C162.5,422.9,162.7,422.5,162.6,422.2z"/>
		
			<radialGradient id="SVGID_26_" cx="-21.1266" cy="474.9637" r="54.0487" gradientTransform="matrix(-1.2069 0 0 1.5961 65.1164 -345.7298)" gradientUnits="userSpaceOnUse">
			<stop  offset="0" style="stop-color:#F1646C"/>
			<stop  offset="1" style="stop-color:#B7256E"/>
		</radialGradient>
		<path class="st35" d="M115.7,457l46.2-35.2c0.7-0.5,0.6-1.4-0.2-2L132,397.1c-0.8-0.6-2-0.7-2.6-0.1l-46.2,35.2
			c-0.7,0.5-0.6,1.4,0.2,2l29.6,22.6C113.8,457.4,115,457.5,115.7,457z"/>
	</g>
</g>
<g>
	<g>
		<path class="st16" d="M314.1,538.4c0,0,1.2,3.3,0.9,5.4c-0.3,2.1-4.3,9.6-5.4,13.7c-1.2,4.1-7,10.2-10.3,10.2
			c-3.3,0-6.3-1.8-4.8-6.7c1.6-4.8,2.9-6.7,4.2-8.9c1.3-2.2,3.9-8.6,4.2-11.2C303.4,538.3,314.1,538.4,314.1,538.4z"/>
		<path class="st16" d="M297.9,518.4c0,0,0.5,4.3,0.1,5.9c-0.5,1.6-1.5,3-4.5,4.1c-2.9,1.1-5.7,1.5-10.5,5.3
			c-4.9,3.8-11.5,5.4-13.5,1.2c-2-4.2,4.9-10.5,7.5-12.1c2.5-1.6,6.5-2.5,8.6-5c2.1-2.5,2.5-1.9,2.5-1.9L297.9,518.4z"/>
		
			<radialGradient id="SVGID_27_" cx="1947.538" cy="461.6187" r="31.0043" gradientTransform="matrix(-1.2069 0 0 1.5961 2566.4082 -345.7298)" gradientUnits="userSpaceOnUse">
			<stop  offset="0" style="stop-color:#2AC3EA"/>
			<stop  offset="0.1097" style="stop-color:#2DBDE4"/>
			<stop  offset="0.2383" style="stop-color:#2EB1D8"/>
			<stop  offset="0.3764" style="stop-color:#2EA0C7"/>
			<stop  offset="0.5212" style="stop-color:#2D89B1"/>
			<stop  offset="0.6712" style="stop-color:#2C6F99"/>
			<stop  offset="0.8257" style="stop-color:#27537F"/>
			<stop  offset="0.9809" style="stop-color:#233266"/>
			<stop  offset="1" style="stop-color:#232E63"/>
		</radialGradient>
		<path class="st36" d="M315.7,442.7c0,0-2.4,28.6-1.7,38.6c0.7,10.1,5.6,28.7,4,41.2c-1.6,12.6-3.5,17.8-3.5,17.8
			s-6.5,8.8-11.5,0.9c0,0,2.1-5.1,1.8-18.2c-0.1-6.7-0.2-10.5-0.3-12.7c0-1.6-0.4-3.2-1-4.6c-1.5-3.5-4.7-11-7-19.7
			c0,0,1.1,18.5,1,26.9c0,1.3,0.1,2.6,0.3,3.9c0.1,1.1,0.3,2.4,0.1,3.5c-0.3,2.2-6.2,10.3-10.9,3.8c0,0-1.8-1.6-1.4-6.7
			c0.3-3.4-0.4-10.8-0.9-16.7c-0.4-4.7-1.5-9.1-3.1-13.2c-1.3-3.3-2.6-10.1-3.3-13.3c-1.6-6.2-7.4-36.1-7.5-42.9
			c-0.1-6.8,6.2-11.6,6.2-11.6s14.6,9.4,14.3,10.4c-0.3,1,18.2,11.3,18.2,11.3L315.7,442.7z"/>
		<path class="st11" d="M276.9,419.4c0,0,14.6,9.4,14.3,10.4c-0.3,1,18.2,11.3,18.2,11.3l6.3,1.5c0,0-2.4,28.6-1.7,38.6
			c0.7,10.1,5.6,28.7,4,41.2c-1.6,12.6-3.5,17.8-3.5,17.8s-1.1,1.4-2.7,2.6c0.9-3.7,3.7-16.7,3.6-28.1c-0.1-13.3-4.5-34.7-4.7-41.6
			c-0.1-3.7-2.2-6.7-4.9-6.9c-4.2-0.2-10.4-1.2-14.7-4.3c1.3,7.4,5.3,23.9,5.3,23.9s1.2,19.8,1,27.7c0,0.8,0,1.6,0.2,2.4
			c0.2,1.1,0.4,2.9,0.2,4.2c-0.1,0.8-1,2.3-2.2,3.7c-0.1-8.1-1.3-28.7-1.8-33.5c-0.5-5.3-4.7-26.5-4.7-26.5
			c-2.2-2.3-3.3-7.7-3.7-10.5c-1.9-5.4-2.2-10.4-5.7-10.5c-0.3,0-4.6,7.1-7.5,1.5c-0.9-6-1.5-11-1.5-13.3
			C270.6,424.3,276.9,419.4,276.9,419.4z"/>
		<path class="st37" d="M271.4,432.1l0.8,3.6c0,0,1.3,0.2,3-2.3c1.7-2.6,0.1-5,0.1-5l-3.2,0.9L271.4,432.1z"/>
		
			<radialGradient id="SVGID_28_" cx="1962.9243" cy="414.1467" r="88.8705" gradientTransform="matrix(-1.2069 0 0 1.5961 2566.4082 -345.7298)" gradientUnits="userSpaceOnUse">
			<stop  offset="0" style="stop-color:#2AC3EA"/>
			<stop  offset="0.1742" style="stop-color:#2CBFE7"/>
			<stop  offset="0.3094" style="stop-color:#2DB7DF"/>
			<stop  offset="0.4315" style="stop-color:#2DABD5"/>
			<stop  offset="0.5458" style="stop-color:#2D9CC7"/>
			<stop  offset="0.6548" style="stop-color:#2C89B6"/>
			<stop  offset="0.7598" style="stop-color:#2C74A4"/>
			<stop  offset="0.8615" style="stop-color:#295D91"/>
			<stop  offset="0.9583" style="stop-color:#27437E"/>
			<stop  offset="1" style="stop-color:#273675"/>
		</radialGradient>
		<path class="st38" d="M282.7,333.4c0,0-0.9-0.1-3,1.4c-2.1,1.5-4.6,5.3-6.1,14.4c-1.5,9.2-7.6,33.2-8.1,37.7
			c-0.5,4.2,0.7,32.7,2.7,44.8c0.2,0.9,0.9,1.5,1.5,1.2c1.7-0.8,4.9-2.4,6.7-4.2c2.6-2.6,2.1-23.2,2.1-23.2l-1.7-26.4l2.8-21.6
			c0,0,4.1-17.1,3.5-18.2C282.5,338.2,282.7,333.4,282.7,333.4z"/>
		<linearGradient id="SVGID_29_" gradientUnits="userSpaceOnUse" x1="230.888" y1="365.824" x2="288.9118" y2="390.6991">
			<stop  offset="0" style="stop-color:#2AC3EA"/>
			<stop  offset="0.278" style="stop-color:#2C8FBB"/>
			<stop  offset="0.6309" style="stop-color:#295E92"/>
			<stop  offset="0.8799" style="stop-color:#27417D"/>
			<stop  offset="1" style="stop-color:#273675"/>
		</linearGradient>
		<path class="st39" d="M327.2,359.7c0,0,2.8,7.1-0.9,16.6c-3.8,9.6-12.8,29.1-12.8,29.1s2.9,27.3,2.5,34
			c-0.4,6.7-4.2,14.5-5.2,17.1c-1,2.5-8.8,8.8-17.9,2.8c-9.1-6-9.9-14.2-10.8-23.1c-0.9-8.9-0.6-8.4-0.6-8.4s-4.2,17.6-6.8,14.3
			c-1.1-1.4-1.2-5.7-0.9-10.3c0.6-9.7,0.9-19.4,0.5-29c0-0.4,0-0.7,0-0.9c0-3.1-0.4-31.1,0.2-38.6c0.6-7.5-0.2-19.4,2.7-24.3
			c2.5-4.1,5.3-5.6,5.3-5.6l4.2-0.3c0,0,24.6-2.7,26.8,1.5c2.1,4.2,2.9,6.8,2.9,6.8S324,351.8,327.2,359.7L327.2,359.7z"/>
		<path class="st40" d="M307.7,329.9c0,0,1,0.7,1.4,2.3c0.4,1.5,1.6,5.8,2.3,6.9c0,0-10.9,13.6-15,20.6c-4.1,7-5.4,12.8-5.4,12.8
			l-5.7-8.8l1.8-2.6l1-5.8l1.7-6.5l1.2-6.5l13.5-10.2L307.7,329.9z"/>
		<path class="st41" d="M296.9,348.5c0,0,2.2,1.9,3,4.6c0,0-2.1-2-2.7-2.1c0,0-1.6,2-1.9,2.8c-0.3,0.8,0,8.2,0,8.2l-0.8,1.5
			l-0.9,0.1c0,0-0.1-5.3-0.2-5.5c-0.1-0.3-0.3-4.5-0.2-4.8c0.1-0.3,3-3.9,3-3.9l1-0.9L296.9,348.5z"/>
		
			<radialGradient id="SVGID_30_" cx="1870.9011" cy="449.8949" r="85.0274" gradientTransform="matrix(-1.2069 0 0 1.5961 2566.4082 -345.7298)" gradientUnits="userSpaceOnUse">
			<stop  offset="0" style="stop-color:#F1646C"/>
			<stop  offset="1" style="stop-color:#B7256E"/>
		</radialGradient>
		<path class="st42" d="M291.2,346.9c0,0,1.4-0.8,2.3-0.6c0.9,0.3,3.3,1.9,3.7,2.5c0.4,0.6-0.1,1.4-1.5,2.8
			c-1.4,1.4-1.5,2.3-1.5,2.3s0.8,6,0.3,9.6c0,0-2.9,6.8-3.5,10.1c-0.6,3.3-3.2-10.6-3.2-10.6s0.9-4.4,1.3-5.6c0.4-1.1,2-7.1,1.6-8.1
			C290.3,348.3,291.2,346.9,291.2,346.9z"/>
		<path class="st43" d="M315.8,342.3l-1.9,5.1l-3.3-0.2l0.4,4.5c0,0-13.5,11.8-18.6,24.2l0.3,1.3c0,0,6-13.2,19-24.1l0.4-0.4
			l-0.7-4.3l2.9,0.7L315.8,342.3z"/>
		<path class="st44" d="M293.6,343.7c0,0,0.6,2.2,2.3,2.4c1.7,0.2,11.1-4.6,12.5-11.9c0,0-0.6-3.5-0.6-4.1c0,0,0.7-0.7,0.8-1.8
			c0.1-1.1,0.9-3.5,1.1-4.3c0.2-0.8,0.7-2.3,0.4-3.4c0,0,2.8-20.2-5.6-23.7c-8.4-3.5-14.5-0.1-17.2,11.4c0,0-0.7,3.1-1.2,5.4
			c-0.3,1.4-0.4,3-0.1,4.5c0.2,0.8,0.3,1.7,0.3,2.3c-0.1,1.4-0.6,4.6-0.2,8.5c0,0-0.7,2.2,0.4,2.9c1.1,0.8,0.9,7.2,0.9,7.2l3.1,4.2
			C290.5,343.3,291.2,344.2,293.6,343.7z"/>
		
			<radialGradient id="SVGID_31_" cx="294.3372" cy="402.6064" r="26.5664" gradientTransform="matrix(1.2069 0 0 1.5961 -69.2038 -345.7298)" gradientUnits="userSpaceOnUse">
			<stop  offset="0" style="stop-color:#F1646C"/>
			<stop  offset="1" style="stop-color:#B7256E"/>
		</radialGradient>
		<path class="st45" d="M310.2,321.8c0,0,6-18-3.7-25.3c-7.6-5.7-17-3-19.8,10c0,0-0.7,3.4,2.7,5c3.4,1.6,7.8,3.4,9.8,3.3
			c2-0.1,3,1.4,3,4.9c0,2,0.2,2.7,0.4,3c0.2,0.3,0.2,0.7,0.2,1.1l0,0.7c0,0.4,0.2,0.9,0.5,1c0.5,0.2,1,0,1-0.1c0,0,0,0,0,0
			c0.2-2.1,1.1-4,2.4-5.2C308.2,318.8,310,318.1,310.2,321.8z"/>
		<path class="st46" d="M289.1,357.5c0.4-1.1,2-7.1,1.6-8.1c-0.4-1,0.5-2.4,0.5-2.4s1.4-0.8,2.3-0.6c0.1,0,0.2,0.1,0.3,0.1
			c0,0,0,0.1,0,0.1s-1.2,2.8-1.4,3.4c-0.3,0.7-1.3,7.7-1.9,9.3c-0.6,1.6-1.7,7-1.7,7l-0.4-0.3c-0.3-1.7-0.6-2.9-0.6-2.9
			S288.7,358.6,289.1,357.5z"/>
		<path class="st37" d="M290,339.4c0,0,1.5,2.9,1.6,4.4c-0.8-0.2-1-0.5-1-0.5l-1.2-1.7C289.7,340.5,290,339.4,290,339.4z"/>
		<path class="st44" d="M280.1,366.4c0,0-1.7-3.4-1.6-6.4c0.1-2.9,0.7-6.4,0.7-6.4s-1.2,0-1.2-2.4c0.1-2.4,0.6-4.7,1.2-5.3
			c0.6-0.6,1.3-0.5,1.3-0.5s0.5-2,1.8-1.7c0,0,0.1-1.3,1.2-2.3c1.1-1,1.8,0.5,1.8,0.5s0.5-2.1,0.9-2.5c0.4-0.4,1.3-0.5,1.3-0.5
			s2.2-0.4,2.5,0.4c0.4,0.8,1.4,9,1.4,9.4c-0.1,0.4-0.6,4.6-0.9,6c-0.3,1.3-2.8,4.8-3.2,6.4c-0.4,1.6-4.3,6.9-4.4,6.9
			C282.8,368.1,280.1,366.4,280.1,366.4z"/>
		<path class="st43" d="M281.6,427.8c0,0,0.1-28.5,3.7-41.2l-1.9,4.1c0,0-3,16.7-2.3,39.1L281.6,427.8z"/>
		<path class="st43" d="M282.2,383.1c0,0,16.1,19.1,16.1,19.3c0.1,0.2,23.5-19.2,23.5-19.2l0.7,2.2c-4.1,9.4-9,20-9,20
			s0.4,3.3,0.8,7.9c0,0-11.6,16.3-18.8,14.2c-6.2-1.8-12.9-29.1-14.5-36.5c-0.3-1.2-0.3-2.4,0-3.6L282.2,383.1z"/>
		<path class="st37" d="M279.1,363.5c2.3-1.8,6.5-2.3,6.5-2.3l-4.9,5.6c-0.4-0.2-0.7-0.4-0.7-0.4S279.5,365.2,279.1,363.5
			C279.1,363.5,279.1,363.5,279.1,363.5z"/>
		
			<radialGradient id="SVGID_32_" cx="1673.1548" cy="495.1532" r="169.1167" gradientTransform="matrix(-1.2069 0 0 1.5961 2566.4082 -345.7298)" gradientUnits="userSpaceOnUse">
			<stop  offset="0" style="stop-color:#2AC3EA"/>
			<stop  offset="0.1097" style="stop-color:#2DBDE4"/>
			<stop  offset="0.2383" style="stop-color:#2EB1D8"/>
			<stop  offset="0.3764" style="stop-color:#2EA0C7"/>
			<stop  offset="0.5212" style="stop-color:#2D89B1"/>
			<stop  offset="0.6712" style="stop-color:#2C6F99"/>
			<stop  offset="0.8257" style="stop-color:#27537F"/>
			<stop  offset="0.9809" style="stop-color:#233266"/>
			<stop  offset="1" style="stop-color:#232E63"/>
		</radialGradient>
		<path class="st47" d="M308.8,371.4c2.4-4.1,5.8-7.3,9.1-10.1c2.9-2.5,6.1-4.4,7.9-2.8c3.8,3.4,3,9.8,1.2,16.1
			c-1.8,6.4-18,42.4-29.3,41.6c0,0-8.2-11.2-12-20c-3.2-7.4-8.3-20.1-9.8-23.9c-0.3-0.6-0.2-1.5,0.3-2c2.2-2.7,9-10.5,11-9.2
			c0,0,4.6,15.4,9.3,23.1l3.6,4.6c0,0,3-7.3,5.4-11.6C306.3,375.6,307.6,373.4,308.8,371.4z"/>
		<path class="st37" d="M295.9,346.1c-1.7-0.2-2.3-2.4-2.3-2.4s9.6-5.1,10.7-12.9c0,0,0.1,8.2-2.5,12.5
			C299.2,345.2,296.7,346.2,295.9,346.1z"/>
		<g>
			<path class="st48" d="M296.5,485.9c0,0,0,0.1,0,0.2C296.5,486,296.5,485.9,296.5,485.9z"/>
			<path class="st11" d="M304.9,543.3c-0.6-0.5-1.3-1.2-1.9-2.2c0,0,2.1-5.1,1.8-18.2c-0.1-6.7-0.2-10.5-0.3-12.7
				c0-1.6-0.4-3.2-1-4.6c-1.5-3.3-4.4-10.3-6.7-18.4c0-0.1,0-0.1,0-0.2c1.6,3.8,9,15.4,10,24.4C307.7,520.1,305.6,537.8,304.9,543.3
				z"/>
			<path class="st48" d="M296.8,487c0,0,0-0.1,0-0.1c-0.1-0.3-0.2-0.7-0.3-1C296.5,485.6,296.6,486.1,296.8,487z"/>
		</g>
		<path class="st43" d="M277.2,369c0,0,14.7,42.1,21.4,43.7c6.7,1.7,24.8-29.3,24.8-29.3s0,0,0,0.1c-5.8,12.7-17.2,33.1-25.7,32.5
			c0,0-8.2-11.2-12-20c-3.2-7.4-8.3-20.1-9.8-23.9c-0.3-0.6-0.2-1.5,0.3-2C276.4,369.9,276.8,369.5,277.2,369z"/>
		<path class="st43" d="M300,388.7c0,0,1.9,3.9,2.6,6.4l-2.2-7.2L300,388.7z"/>
	</g>
</g>
<linearGradient id="SVGID_33_" gradientUnits="userSpaceOnUse" x1="99.0155" y1="426.9809" x2="122.7052" y2="426.9809">
	<stop  offset="0" style="stop-color:#B7256E"/>
	<stop  offset="2.061403e-002" style="stop-color:#BB2A6E"/>
	<stop  offset="0.1286" style="stop-color:#CC416E"/>
	<stop  offset="0.2521" style="stop-color:#DB506D"/>
	<stop  offset="0.3988" style="stop-color:#E65B6D"/>
	<stop  offset="0.5907" style="stop-color:#EE626C"/>
	<stop  offset="1" style="stop-color:#F1646C"/>
</linearGradient>
<path class="st49" d="M126.9,429.6c-1.9,1.4-5,1.4-6.9,0c-1.9-1.4-1.9-3.8,0-5.2s5-1.4,6.9,0C128.8,425.8,128.8,428.2,126.9,429.6z"
	/>
<g>
	<polygon class="st11" points="194.4,384.7 158.8,411.7 197.6,441.3 233.1,414.3 	"/>
	<g>
		
			<linearGradient id="SVGID_34_" gradientUnits="userSpaceOnUse" x1="109.4779" y1="435.8103" x2="193.4075" y2="452.2027" gradientTransform="matrix(0.866 0.5 0 1.1547 38.518 -184.7345)">
			<stop  offset="4.830920e-003" style="stop-color:#E0F2F5"/>
			<stop  offset="0.1521" style="stop-color:#D6EEF3"/>
			<stop  offset="0.3982" style="stop-color:#BCE4EE"/>
			<stop  offset="0.7108" style="stop-color:#8FD4E5"/>
			<stop  offset="1" style="stop-color:#57C5DD"/>
		</linearGradient>
		<polygon class="st50" points="177,425.9 138.2,396.3 138.2,361.2 177,390.8 		"/>
		
			<linearGradient id="SVGID_35_" gradientUnits="userSpaceOnUse" x1="201.4507" y1="315.4179" x2="149.6223" y2="292.1237" gradientTransform="matrix(0.866 -0.5 0 1.1547 46.5142 131.951)">
			<stop  offset="0" style="stop-color:#9AC5D2"/>
			<stop  offset="0.2888" style="stop-color:#8FC5D4"/>
			<stop  offset="0.77" style="stop-color:#6FC5D9"/>
			<stop  offset="1" style="stop-color:#57C5DD"/>
		</linearGradient>
		<polygon class="st51" points="212.6,398.9 177,425.9 177,390.8 212.6,363.8 		"/>
		
			<linearGradient id="SVGID_36_" gradientUnits="userSpaceOnUse" x1="377.4586" y1="441.0608" x2="441.5148" y2="400.0883" gradientTransform="matrix(0.866 0.5 -1 0.5774 260.8252 -83.3806)">
			<stop  offset="4.830920e-003" style="stop-color:#E0F2F5"/>
			<stop  offset="0.1521" style="stop-color:#D6EEF3"/>
			<stop  offset="0.3982" style="stop-color:#BCE4EE"/>
			<stop  offset="0.7108" style="stop-color:#8FD4E5"/>
			<stop  offset="1" style="stop-color:#57C5DD"/>
		</linearGradient>
		<polygon class="st52" points="173.8,334.2 138.2,361.2 177,390.8 212.6,363.8 		"/>
		<linearGradient id="SVGID_37_" gradientUnits="userSpaceOnUse" x1="231.9254" y1="386.2304" x2="165.6055" y2="358.402">
			<stop  offset="0" style="stop-color:#B7256E"/>
			<stop  offset="1" style="stop-color:#F1646C"/>
		</linearGradient>
		<polygon class="st53" points="173.9,335.2 139.6,361.3 177,389.8 211.2,363.7 		"/>
		<linearGradient id="SVGID_38_" gradientUnits="userSpaceOnUse" x1="133.5792" y1="393.2401" x2="200.4103" y2="336.3195">
			<stop  offset="0" style="stop-color:#B7256E"/>
			<stop  offset="1" style="stop-color:#F1646C"/>
		</linearGradient>
		<polygon class="st54" points="173.8,335.2 139.6,361.3 171.7,385.8 173.8,385.8 		"/>
		<polygon class="st46" points="173.8,335.2 139.6,361.3 171.7,385.8 173.8,385.8 		"/>
		<linearGradient id="SVGID_39_" gradientUnits="userSpaceOnUse" x1="157.1832" y1="379.4861" x2="229.6617" y2="379.4861">
			<stop  offset="0" style="stop-color:#B7256E"/>
			<stop  offset="1" style="stop-color:#F1646C"/>
		</linearGradient>
		<polygon class="st55" points="161.8,378.3 177,389.8 189,380.7 173.9,369.1 		"/>
	</g>
	<g>
		<linearGradient id="SVGID_40_" gradientUnits="userSpaceOnUse" x1="139.8684" y1="344.0533" x2="245.8986" y2="364.3498">
			<stop  offset="0" style="stop-color:#9AC5D2"/>
			<stop  offset="0.1668" style="stop-color:#90BFD1"/>
			<stop  offset="0.4455" style="stop-color:#77AFCE"/>
			<stop  offset="0.7997" style="stop-color:#4998CA"/>
			<stop  offset="1" style="stop-color:#188CC7"/>
		</linearGradient>
		<polygon class="st56" points="212.6,363.8 179.7,362.3 178.3,367.8 139.6,338.2 141,332.7 173.8,334.2 		"/>
		<linearGradient id="SVGID_41_" gradientUnits="userSpaceOnUse" x1="139.5671" y1="350.227" x2="179.7228" y2="350.227">
			<stop  offset="4.830920e-003" style="stop-color:#E0F2F5"/>
			<stop  offset="0.1521" style="stop-color:#D6EEF3"/>
			<stop  offset="0.3982" style="stop-color:#BCE4EE"/>
			<stop  offset="0.7108" style="stop-color:#8FD4E5"/>
			<stop  offset="1" style="stop-color:#57C5DD"/>
		</linearGradient>
		<polygon class="st57" points="141,332.7 179.7,362.3 178.3,367.8 139.6,338.2 		"/>
	</g>
</g>
<path class="st11" d="M99.9,494.4l8.6-6.6c0.4-0.3,0.4-0.9-0.1-1.2l-18.5-14.1c-0.5-0.4-1.2-0.4-1.6-0.1l-8.6,6.6
	c-0.4,0.3-0.4,0.9,0.1,1.2l18.5,14.1C98.7,494.7,99.4,494.7,99.9,494.4z"/>
<linearGradient id="SVGID_42_" gradientUnits="userSpaceOnUse" x1="377.8434" y1="482.5713" x2="407.7589" y2="482.5713" gradientTransform="matrix(-1 0 0 1 475.3164 0)">
	<stop  offset="0" style="stop-color:#B7256E"/>
	<stop  offset="3.286356e-002" style="stop-color:#BF306E"/>
	<stop  offset="0.1178" style="stop-color:#CF446E"/>
	<stop  offset="0.2182" style="stop-color:#DD526D"/>
	<stop  offset="0.3423" style="stop-color:#E75C6D"/>
	<stop  offset="0.5165" style="stop-color:#EE626C"/>
	<stop  offset="1" style="stop-color:#F1646C"/>
</linearGradient>
<path class="st58" d="M78.6,477.8L78.6,477.8l8.3-6.3c0.4-0.3,1.2-0.3,1.7,0.1l18.6,14.2l0.6-0.3l-0.2,1.2l0,0
	c0,0.2-0.1,0.3-0.3,0.5l-8.6,6.6c-0.4,0.3-1.2,0.3-1.7-0.1l-18.7-14.2c-0.2-0.2-0.4-0.4-0.4-0.6l0,0l-0.2-1.1L78.6,477.8z"/>
<linearGradient id="SVGID_43_" gradientUnits="userSpaceOnUse" x1="367.4887" y1="481.424" x2="397.4216" y2="481.424" gradientTransform="matrix(-1 0 0 1 475.3164 0)">
	<stop  offset="0" style="stop-color:#B7256E"/>
	<stop  offset="3.286356e-002" style="stop-color:#BF306E"/>
	<stop  offset="0.1178" style="stop-color:#CF446E"/>
	<stop  offset="0.2182" style="stop-color:#DD526D"/>
	<stop  offset="0.3423" style="stop-color:#E75C6D"/>
	<stop  offset="0.5165" style="stop-color:#EE626C"/>
	<stop  offset="1" style="stop-color:#F1646C"/>
</linearGradient>
<path class="st59" d="M98.8,492.6l8.8-6.7c0.4-0.3,0.4-0.9-0.1-1.3l-18.8-14.3c-0.5-0.4-1.2-0.4-1.7-0.1l-8.8,6.7
	c-0.4,0.3-0.4,0.9,0.1,1.3l18.8,14.3C97.6,492.9,98.3,493,98.8,492.6z"/>
<path class="st12" d="M78.3,477.9l18.8,14.3c0.5,0.4,1.2,0.4,1.7,0.1l8.8-6.7c0.1-0.1,0.2-0.3,0.3-0.4c0.1,0.3,0,0.5-0.3,0.7
	l-8.8,6.7c-0.4,0.3-1.2,0.3-1.7-0.1l-18.8-14.3c-0.3-0.2-0.5-0.6-0.4-0.9C78,477.5,78.1,477.7,78.3,477.9z"/>
<g>
	<g>
		<polygon class="st0" points="282.2,661.3 224.7,617.4 228.3,614.7 285.8,658.6 		"/>
		<polygon class="st0" points="291.7,680 264.7,659.4 283.3,645.2 310.2,665.8 		"/>
		<path class="st0" d="M284.1,672.9l-3.2,2.5c-0.1,0.1-0.2,0.1-0.3,0l-6.2-4.7l0.2-0.1c0.3-0.3,0.4-0.7,0.1-1l-3.3-3.3
			c-0.4-0.4-1-0.4-1.5-0.1l-2.1,1.6c-0.4,0.3-0.4,0.8,0.1,1.1l4.2,2.6c0.4,0.2,0.9,0.2,1.3-0.1l0.3-0.2l6.2,4.7
			c0.4,0.3,1.2,0.3,1.6,0l3.2-2.5L284.1,672.9z"/>
		<path class="st0" d="M245.9,612.3c-0.8-0.6-1.7-1.1-2.6-1.6l0,0l-4.9-2.9l0.4,1.1c-3.7-1-7.8-1-11.6-0.2l0.2-1.3l-5.8,3.4l0,0
			c-0.8,0.4-1.5,0.9-2.2,1.4c-7.3,5.6-7.3,14.6,0,20.1c7.3,5.6,19.1,5.6,26.4,0C253.2,626.9,253.2,617.8,245.9,612.3z"/>
		
			<radialGradient id="SVGID_44_" cx="236.4293" cy="596.9097" r="26.9777" gradientTransform="matrix(1.2069 0 0 1.5961 -69.2038 -345.7298)" gradientUnits="userSpaceOnUse">
			<stop  offset="0" style="stop-color:#2AC3EA"/>
			<stop  offset="0.1058" style="stop-color:#2BBBE4"/>
			<stop  offset="0.2825" style="stop-color:#24AADA"/>
			<stop  offset="0.507" style="stop-color:#1B91C9"/>
			<stop  offset="0.7147" style="stop-color:#1578B8"/>
			<stop  offset="1" style="stop-color:#243972"/>
			<stop  offset="1" style="stop-color:#232B62"/>
		</radialGradient>
		<path class="st60" d="M243.6,609.8c-0.8-0.6-1.7-1.1-2.6-1.6l0,0l-4.9-2.9l0.4,1.1c-3.7-1-7.8-1-11.6-0.2l0.2-1.3l-5.8,3.4l0,0
			c-0.8,0.4-1.5,0.9-2.2,1.4c-7.3,5.6-7.3,14.6,0,20.1c7.3,5.6,19.1,5.6,26.4,0C250.9,624.4,250.9,615.3,243.6,609.8z"/>
		
			<radialGradient id="SVGID_45_" cx="242.2603" cy="595.1595" r="20.3333" gradientTransform="matrix(1.2069 0 0 1.5961 -69.2038 -345.7298)" gradientUnits="userSpaceOnUse">
			<stop  offset="0" style="stop-color:#2AC3EA"/>
			<stop  offset="6.596173e-002" style="stop-color:#2BBBE4"/>
			<stop  offset="0.1762" style="stop-color:#24AADA"/>
			<stop  offset="0.3162" style="stop-color:#1B91C9"/>
			<stop  offset="0.4457" style="stop-color:#1578B8"/>
			<stop  offset="1" style="stop-color:#232B62"/>
		</radialGradient>
		<path class="st61" d="M236.6,615c-3.4,2.6-8.9,2.6-12.4,0c-3.4-2.6-3.4-6.8,0-9.4c3.4-2.6,8.9-2.6,12.4,0
			C240,608.2,240,612.4,236.6,615z"/>
	</g>
	<g>
		<path class="st11" d="M238.6,612.7l-6.2-4.7l-3.7,3.4l6.2,4.7l7.4,14.8c0.5-0.3,0.9-0.6,1.4-1c0.8-0.6,1.5-1.3,2.1-1.9v0
			L238.6,612.7z"/>
		
			<radialGradient id="SVGID_46_" cx="256.1688" cy="599.3798" r="36.6919" gradientTransform="matrix(1.2069 0 0 1.5961 -69.2038 -345.7298)" gradientUnits="userSpaceOnUse">
			<stop  offset="0" style="stop-color:#2AC3EA"/>
			<stop  offset="6.596173e-002" style="stop-color:#2BBBE4"/>
			<stop  offset="0.1762" style="stop-color:#24AADA"/>
			<stop  offset="0.3162" style="stop-color:#1B91C9"/>
			<stop  offset="0.4457" style="stop-color:#1578B8"/>
			<stop  offset="1" style="stop-color:#232B62"/>
		</radialGradient>
		<path class="st62" d="M230.5,612.1L230.5,612.1c-1.6,0-3-1.8-3-3.9v-35.6h5.9v35.6C233.4,610.4,232.1,612.1,230.5,612.1z"/>
		
			<radialGradient id="SVGID_47_" cx="217.7884" cy="522.4063" r="6.5316" gradientTransform="matrix(1.0452 0.7981 -1.0452 0.7981 544.4203 -19.3644)" gradientUnits="userSpaceOnUse">
			<stop  offset="0" style="stop-color:#2AC3EA"/>
			<stop  offset="6.596173e-002" style="stop-color:#2BBBE4"/>
			<stop  offset="0.1762" style="stop-color:#24AADA"/>
			<stop  offset="0.3162" style="stop-color:#1B91C9"/>
			<stop  offset="0.4457" style="stop-color:#1578B8"/>
			<stop  offset="1" style="stop-color:#232B62"/>
		</radialGradient>
		<path class="st63" d="M232.5,574.3c-1.2,0.9-3.1,0.9-4.3,0c-1.2-0.9-1.2-2.4,0-3.3c1.2-0.9,3.1-0.9,4.3,0
			C233.7,572,233.7,573.4,232.5,574.3z"/>
	</g>
	<linearGradient id="SVGID_48_" gradientUnits="userSpaceOnUse" x1="228.0514" y1="549.3196" x2="232.8664" y2="549.3196">
		<stop  offset="4.830920e-003" style="stop-color:#E0F2F5"/>
		<stop  offset="0.1452" style="stop-color:#D6EEF3"/>
		<stop  offset="0.3686" style="stop-color:#BDE5EE"/>
		<stop  offset="0.5664" style="stop-color:#A4DCE9"/>
		<stop  offset="0.9821" style="stop-color:#5BC6DD"/>
		<stop  offset="1" style="stop-color:#57C5DD"/>
	</linearGradient>
	<path class="st64" d="M230.5,574.2L230.5,574.2c-1.3,0-2.4-1.4-2.4-3.2v-46.7h4.8v46.7C232.9,572.8,231.8,574.2,230.5,574.2z"/>
	<g>
		
			<radialGradient id="SVGID_49_" cx="229.8622" cy="558.277" r="5.9395" gradientTransform="matrix(1.2069 0 0 1.5961 -69.2038 -345.7298)" gradientUnits="userSpaceOnUse">
			<stop  offset="0" style="stop-color:#2AC3EA"/>
			<stop  offset="0.1058" style="stop-color:#2BBBE4"/>
			<stop  offset="0.2825" style="stop-color:#24AADA"/>
			<stop  offset="0.507" style="stop-color:#1B91C9"/>
			<stop  offset="0.7147" style="stop-color:#1578B8"/>
			<stop  offset="1" style="stop-color:#243972"/>
			<stop  offset="1" style="stop-color:#232B62"/>
		</radialGradient>
		<path class="st65" d="M217.3,548l0-1.8l-2-0.4l-2.2-2.2c-0.4-0.4-1-0.4-1.4-0.1l-1.6,1.2l-1.6-0.3v1.9l0,0c0,0.2,0.1,0.4,0.4,0.6
			l5.1,3c0.4,0.2,1,0.2,1.3-0.1l1.7-1.3C217.2,548.4,217.3,548.2,217.3,548L217.3,548z"/>
		<g>
			<g>
				<defs>
					<path id="SVGID_50_" d="M217.1,545.7l-3.9-3.9c-0.4-0.4-1-0.4-1.4-0.1l-2.9,2.2c-0.4,0.3-0.4,0.8,0.1,1.1l5.1,3
						c0.4,0.2,1,0.2,1.3-0.1l1.7-1.3C217.4,546.5,217.4,546,217.1,545.7z"/>
				</defs>
				<clipPath id="SVGID_51_">
					<use xlink:href="#SVGID_50_"  style="overflow:visible;"/>
				</clipPath>
				<rect x="208.4" y="541.5" class="st66" width="9" height="6.9"/>
				<path class="st66" d="M215.9,548.7c-4.8,3-11.7,2.7-15.4-0.7h6.7v-8.1h10.7v-2.8C221.6,540.4,220.7,545.6,215.9,548.7z"/>
				<path class="st67" d="M215.9,548.7c-4.8,3-11.7,2.7-15.4-0.7h6.7v-8.1h10.7v-2.8C221.6,540.4,220.7,545.6,215.9,548.7z"/>
				<path class="st68" d="M215.9,548.7c-4.8,3-11.7,2.7-15.4-0.7h6.7v-8.1h10.7v-2.8C221.6,540.4,220.7,545.6,215.9,548.7z"/>
				<path class="st69" d="M215.9,548.7c-4.8,3-11.7,2.7-15.4-0.7h6.7v-8.1h10.7v-2.8C221.6,540.4,220.7,545.6,215.9,548.7z"/>
				<path class="st70" d="M215.9,548.7c-4.8,3-11.7,2.7-15.4-0.7h6.7v-8.1h10.7v-2.8C221.6,540.4,220.7,545.6,215.9,548.7z"/>
				<path class="st71" d="M215.9,548.7c-4.8,3-11.7,2.7-15.4-0.7h6.7v-8.1h10.7v-2.8C221.6,540.4,220.7,545.6,215.9,548.7z"/>
				<path class="st72" d="M215.9,548.7c-4.8,3-11.7,2.7-15.4-0.7h6.7v-8.1h10.7v-2.8C221.6,540.4,220.7,545.6,215.9,548.7z"/>
				<path class="st73" d="M215.9,548.7c-4.8,3-11.7,2.7-15.4-0.7h6.7v-8.1h10.7v-2.8C221.6,540.4,220.7,545.6,215.9,548.7z"/>
				<path class="st74" d="M215.9,548.7c-4.8,3-11.7,2.7-15.4-0.7h6.7v-8.1h10.7v-2.8C221.6,540.4,220.7,545.6,215.9,548.7z"/>
				<path class="st75" d="M215.9,548.7c-4.8,3-11.7,2.7-15.4-0.7h6.7v-8.1h10.7v-2.8C221.6,540.4,220.7,545.6,215.9,548.7z"/>
				<path class="st76" d="M215.9,548.7c-4.8,3-11.7,2.7-15.4-0.7h6.7v-8.1h10.7v-2.8C221.6,540.4,220.7,545.6,215.9,548.7z"/>
				<path class="st77" d="M215.9,548.7c-4.8,3-11.7,2.7-15.4-0.7h6.7v-8.1h10.7v-2.8C221.6,540.4,220.7,545.6,215.9,548.7z"/>
				<path class="st78" d="M215.9,548.7c-4.8,3-11.7,2.7-15.4-0.7h6.7v-8.1h10.7v-2.8C221.6,540.4,220.7,545.6,215.9,548.7z"/>
				<path class="st79" d="M215.9,548.7c-4.8,3-11.7,2.7-15.4-0.7h6.7v-8.1h10.7v-2.8C221.6,540.4,220.7,545.6,215.9,548.7z"/>
				<path class="st80" d="M215.9,548.7c-4.8,3-11.7,2.7-15.4-0.7h6.7v-8.1h10.7v-2.8C221.6,540.4,220.7,545.6,215.9,548.7z"/>
				<path class="st81" d="M215.9,548.7c-4.8,3-11.7,2.7-15.4-0.7h6.7v-8.1h10.7v-2.8C221.6,540.4,220.7,545.6,215.9,548.7z"/>
				<path class="st81" d="M215.9,548.7c-4.8,3-11.7,2.7-15.4-0.7h6.7v-8.1h10.7v-2.8C221.6,540.4,220.7,545.6,215.9,548.7z"/>
				<path class="st82" d="M215.9,548.6c-4.7,3-11.6,2.7-15.3-0.7h6.6v-8.1h10.6v-2.8C221.5,540.5,220.6,545.6,215.9,548.6z"/>
				<path class="st83" d="M215.8,548.6c-4.7,3-11.5,2.7-15.2-0.7h6.5v-8.1h10.5v-2.7C221.4,540.5,220.6,545.6,215.8,548.6z"/>
				<path class="st84" d="M215.8,548.5c-4.7,3-11.5,2.7-15.1-0.7h6.5v-8h10.5v-2.7C221.3,540.5,220.5,545.6,215.8,548.5z"/>
				<path class="st85" d="M215.8,548.5c-4.7,2.9-11.4,2.6-15-0.7h6.4v-8h10.4v-2.7C221.2,540.5,220.4,545.6,215.8,548.5z"/>
				<path class="st86" d="M215.7,548.5c-4.6,2.9-11.3,2.6-14.9-0.7h6.4v-8h10.4v-2.6C221.2,540.5,220.3,545.5,215.7,548.5z"/>
				<path class="st87" d="M215.7,548.4c-4.6,2.9-11.2,2.6-14.8-0.6h6.3v-7.9h10.3v-2.6C221.1,540.5,220.3,545.5,215.7,548.4z"/>
				<path class="st88" d="M215.6,548.4c-4.6,2.9-11.2,2.6-14.7-0.6h6.3v-7.9h10.3v-2.6C221,540.5,220.2,545.5,215.6,548.4z"/>
				<path class="st89" d="M215.6,548.3c-4.5,2.9-11.1,2.6-14.6-0.6h6.2v-7.9h10.2v-2.5C220.9,540.6,220.1,545.5,215.6,548.3z"/>
				<path class="st90" d="M215.5,548.3c-4.5,2.8-11,2.6-14.5-0.6h6.2v-7.8h10.2v-2.5C220.8,540.6,220,545.5,215.5,548.3z"/>
				<path class="st91" d="M215.5,548.3c-4.5,2.8-10.9,2.5-14.4-0.6h6.1v-7.8h10.1v-2.5C220.8,540.6,220,545.4,215.5,548.3z"/>
				<path class="st92" d="M215.4,548.2c-4.4,2.8-10.9,2.5-14.3-0.6h6v-7.7h10v-2.4C220.7,540.6,219.9,545.4,215.4,548.2z"/>
				<path class="st93" d="M215.4,548.2c-4.4,2.8-10.8,2.5-14.2-0.6h6v-7.7h10v-2.4C220.6,540.6,219.8,545.4,215.4,548.2z"/>
				<path class="st94" d="M215.4,548.1c-4.4,2.8-10.7,2.5-14.1-0.6h5.9v-7.7h9.9v-2.3C220.5,540.6,219.7,545.4,215.4,548.1z"/>
				<path class="st95" d="M215.3,548.1c-4.4,2.7-10.6,2.5-14-0.6h5.9v-7.6h9.9v-2.3C220.4,540.6,219.7,545.4,215.3,548.1z"/>
				<path class="st96" d="M215.3,548.1c-4.3,2.7-10.6,2.5-13.9-0.6h5.8v-7.6h9.8v-2.3C220.4,540.6,219.6,545.3,215.3,548.1z"/>
				<path class="st97" d="M215.2,548c-4.3,2.7-10.5,2.4-13.8-0.6h5.8v-7.6h9.8v-2.2C220.3,540.7,219.5,545.3,215.2,548z"/>
				<path class="st98" d="M215.2,548c-4.3,2.7-10.4,2.4-13.7-0.6h5.7v-7.5h9.7v-2.2C220.2,540.7,219.5,545.3,215.2,548z"/>
				<path class="st99" d="M215.1,548c-4.2,2.7-10.3,2.4-13.6-0.6h5.7v-7.5h9.7v-2.2C220.1,540.7,219.4,545.3,215.1,548z"/>
				<path class="st100" d="M215.1,547.9c-4.2,2.7-10.3,2.4-13.5-0.6h5.6v-7.5h9.6v-2.1C220,540.7,219.3,545.3,215.1,547.9z"/>
				<path class="st101" d="M215.1,547.9c-4.2,2.6-10.2,2.4-13.4-0.6h5.5v-7.4h9.5v-2.1C220,540.7,219.2,545.2,215.1,547.9z"/>
				<path class="st102" d="M215,547.8c-4.1,2.6-10.1,2.4-13.3-0.6h5.5v-7.4h9.5v-2.1C219.9,540.7,219.2,545.2,215,547.8z"/>
				<path class="st103" d="M215,547.8c-4.1,2.6-10,2.3-13.2-0.6h5.4v-7.4h9.4v-2C219.8,540.7,219.1,545.2,215,547.8z"/>
				<path class="st104" d="M214.9,547.8c-4.1,2.6-10,2.3-13.1-0.6h5.4v-7.3h9.4v-2C219.7,540.7,219,545.2,214.9,547.8z"/>
				<path class="st105" d="M214.9,547.7c-4,2.6-9.9,2.3-13.1-0.6h5.3v-7.3h9.3v-2C219.7,540.8,218.9,545.2,214.9,547.7z"/>
				<path class="st106" d="M214.8,547.7c-4,2.5-9.8,2.3-13-0.6h5.3v-7.3h9.3v-1.9C219.6,540.8,218.9,545.1,214.8,547.7z"/>
				<path class="st107" d="M214.8,547.6c-4,2.5-9.7,2.3-12.9-0.6h5.2v-7.2h9.2V538C219.5,540.8,218.8,545.1,214.8,547.6z"/>
				<path class="st108" d="M214.8,547.6c-4,2.5-9.7,2.2-12.8-0.6h5.2v-7.2h9.2V538C219.4,540.8,218.7,545.1,214.8,547.6z"/>
				<path class="st109" d="M214.7,547.6c-3.9,2.5-9.6,2.2-12.7-0.6h5.1v-7.2h9.1V538C219.3,540.8,218.6,545.1,214.7,547.6z"/>
				<path class="st110" d="M214.7,547.5c-3.9,2.5-9.5,2.2-12.6-0.5h5.1v-7.1h9v-1.8C219.3,540.8,218.6,545.1,214.7,547.5z"/>
				<path class="st111" d="M214.6,547.5c-3.9,2.4-9.4,2.2-12.5-0.5h5v-7.1h9v-1.8C219.2,540.8,218.5,545,214.6,547.5z"/>
				<path class="st112" d="M214.6,547.4c-3.8,2.4-9.4,2.2-12.4-0.5h4.9v-7h8.9v-1.7C219.1,540.9,218.4,545,214.6,547.4z"/>
				<path class="st113" d="M214.5,547.4c-3.8,2.4-9.3,2.2-12.3-0.5h4.9v-7h8.9v-1.7C219,540.9,218.3,545,214.5,547.4z"/>
				<path class="st114" d="M214.5,547.4c-3.8,2.4-9.2,2.1-12.2-0.5h4.8v-7h8.8v-1.6C218.9,540.9,218.3,545,214.5,547.4z"/>
				<path class="st115" d="M214.5,547.3c-3.7,2.4-9.1,2.1-12.1-0.5h4.8v-6.9h8.8v-1.6C218.9,540.9,218.2,545,214.5,547.3z"/>
				<path class="st116" d="M214.4,547.3c-3.7,2.3-9.1,2.1-12-0.5h4.7v-6.9h8.7v-1.6C218.8,540.9,218.1,544.9,214.4,547.3z"/>
				<path class="st117" d="M214.4,547.2c-3.7,2.3-9,2.1-11.9-0.5h4.7v-6.9h8.7v-1.5C218.7,540.9,218,544.9,214.4,547.2z"/>
				<path class="st118" d="M214.3,547.2c-3.6,2.3-8.9,2.1-11.8-0.5h4.6v-6.8h8.6v-1.5C218.6,540.9,218,544.9,214.3,547.2z"/>
				<path class="st119" d="M214.3,547.2c-3.6,2.3-8.8,2.1-11.7-0.5h4.6v-6.8h8.6v-1.5C218.5,540.9,217.9,544.9,214.3,547.2z"/>
				<path class="st120" d="M214.2,547.1c-3.6,2.3-8.8,2-11.6-0.5h4.5v-6.8h8.5v-1.4C218.5,541,217.8,544.9,214.2,547.1z"/>
				<path class="st121" d="M214.2,547.1c-3.6,2.2-8.7,2-11.5-0.5h4.4v-6.7h8.4v-1.4C218.4,541,217.8,544.8,214.2,547.1z"/>
				<path class="st122" d="M214.2,547c-3.5,2.2-8.6,2-11.4-0.5h4.4v-6.7h8.4v-1.4C218.3,541,217.7,544.8,214.2,547z"/>
				<path class="st123" d="M214.1,547c-3.5,2.2-8.5,2-11.3-0.5h4.3v-6.7h8.3v-1.3C218.2,541,217.6,544.8,214.1,547z"/>
				<path class="st124" d="M214.1,547c-3.5,2.2-8.5,2-11.2-0.5h4.3v-6.6h8.3v-1.3C218.1,541,217.5,544.8,214.1,547z"/>
				<path class="st125" d="M214,546.9c-3.4,2.2-8.4,2-11.1-0.5h4.2v-6.6h8.2v-1.3C218.1,541,217.5,544.8,214,546.9z"/>
				<path class="st126" d="M214,546.9c-3.4,2.2-8.3,1.9-11-0.5h4.2v-6.6h8.2v-1.2C218,541,217.4,544.7,214,546.9z"/>
				<path class="st127" d="M213.9,546.9c-3.4,2.1-8.2,1.9-10.9-0.5h4.1v-6.5h8.1v-1.2C217.9,541.1,217.3,544.7,213.9,546.9z"/>
				<path class="st128" d="M213.9,546.8c-3.3,2.1-8.2,1.9-10.8-0.5h4.1v-6.5h8.1v-1.2C217.8,541.1,217.2,544.7,213.9,546.8z"/>
				<path class="st129" d="M213.9,546.8c-3.3,2.1-8.1,1.9-10.7-0.5h4v-6.5h8v-1.1C217.8,541.1,217.2,544.7,213.9,546.8z"/>
				<path class="st130" d="M213.8,546.7c-3.3,2.1-8,1.9-10.6-0.5h3.9v-6.4h7.9v-1.1C217.7,541.1,217.1,544.7,213.8,546.7z"/>
				<path class="st131" d="M213.8,546.7c-3.3,2.1-7.9,1.8-10.5-0.5h3.9v-6.4h7.9v-1.1C217.6,541.1,217,544.6,213.8,546.7z"/>
				<path class="st132" d="M213.7,546.7c-3.2,2-7.9,1.8-10.4-0.5h3.8v-6.3h7.8v-1C217.5,541.1,216.9,544.6,213.7,546.7z"/>
				<path class="st133" d="M213.7,546.6c-3.2,2-7.8,1.8-10.3-0.4h3.8v-6.3h7.8v-1C217.4,541.1,216.9,544.6,213.7,546.6z"/>
				<path class="st134" d="M213.6,546.6c-3.2,2-7.7,1.8-10.2-0.4h3.7v-6.3h7.7v-0.9C217.4,541.1,216.8,544.6,213.6,546.6z"/>
				<path class="st135" d="M213.6,546.5c-3.1,2-7.6,1.8-10.1-0.4h3.7v-6.2h7.7v-0.9C217.3,541.2,216.7,544.6,213.6,546.5z"/>
				<path class="st136" d="M213.5,546.5c-3.1,2-7.6,1.8-10-0.4h3.6v-6.2h7.6V539C217.2,541.2,216.6,544.5,213.5,546.5z"/>
				<path class="st137" d="M213.5,546.5c-3.1,1.9-7.5,1.7-9.9-0.4h3.6v-6.2h7.6V539C217.1,541.2,216.6,544.5,213.5,546.5z"/>
				<path class="st138" d="M213.5,546.4c-3,1.9-7.4,1.7-9.8-0.4h3.5v-6.1h7.5V539C217,541.2,216.5,544.5,213.5,546.4z"/>
				<path class="st139" d="M213.4,546.4c-3,1.9-7.4,1.7-9.7-0.4h3.4v-6.1h7.4v-0.8C217,541.2,216.4,544.5,213.4,546.4z"/>
				<path class="st140" d="M213.4,546.3c-3,1.9-7.3,1.7-9.6-0.4h3.4v-6.1h7.4v-0.7C216.9,541.2,216.4,544.5,213.4,546.3z"/>
				<path class="st141" d="M213.3,546.3c-2.9,1.9-7.2,1.7-9.5-0.4h3.3v-6h7.3v-0.7C216.8,541.2,216.3,544.4,213.3,546.3z"/>
				<path class="st142" d="M213.3,546.3c-2.9,1.8-7.1,1.7-9.4-0.4h3.3v-6h7.3v-0.7C216.7,541.3,216.2,544.4,213.3,546.3z"/>
				<path class="st143" d="M213.2,546.2c-2.9,1.8-7.1,1.6-9.3-0.4h3.2v-6h7.2v-0.6C216.6,541.3,216.1,544.4,213.2,546.2z"/>
				<path class="st144" d="M213.2,546.2c-2.9,1.8-7,1.6-9.2-0.4h3.2v-5.9h7.2v-0.6C216.6,541.3,216.1,544.4,213.2,546.2z"/>
				<path class="st145" d="M213.2,546.1c-2.8,1.8-6.9,1.6-9.1-0.4h3.1v-5.9h7.1v-0.6C216.5,541.3,216,544.4,213.2,546.1z"/>
				<path class="st146" d="M213.1,546.1c-2.8,1.8-6.8,1.6-9-0.4h3.1v-5.9h7.1v-0.5C216.4,541.3,215.9,544.3,213.1,546.1z"/>
				<path class="st147" d="M213.1,546.1c-2.8,1.7-6.8,1.6-8.9-0.4h3v-5.8h7v-0.5C216.3,541.3,215.8,544.3,213.1,546.1z"/>
				<path class="st148" d="M213,546c-2.7,1.7-6.7,1.6-8.8-0.4h2.9v-5.8h6.9v-0.5C216.2,541.3,215.8,544.3,213,546z"/>
				<path class="st148" d="M213,546c-2.7,1.7-6.6,1.5-8.7-0.4h2.9v-5.8h6.9v-0.4C216.2,541.3,215.7,544.3,213,546z"/>
				<path class="st149" d="M212.9,545.9c-2.7,1.7-6.5,1.5-8.6-0.4h2.8v-5.7h6.8v-0.4C216.1,541.4,215.6,544.3,212.9,545.9z"/>
				<path class="st150" d="M212.9,545.9c-2.6,1.7-6.4,1.5-8.5-0.4h2.8v-5.7h6.8v-0.3C216,541.4,215.5,544.2,212.9,545.9z"/>
				<path class="st151" d="M212.8,545.9c-2.6,1.6-6.4,1.5-8.4-0.4h2.7v-5.6h6.7v-0.3C215.9,541.4,215.4,544.2,212.8,545.9z"/>
				<path class="st152" d="M212.8,545.8c-2.6,1.6-6.3,1.5-8.3-0.4h2.7v-5.6h6.7v-0.3C215.8,541.4,215.4,544.2,212.8,545.8z"/>
				<path class="st153" d="M212.8,545.8c-2.5,1.6-6.2,1.4-8.2-0.4h2.6v-5.6h6.6v-0.2C215.7,541.4,215.3,544.2,212.8,545.8z"/>
				<path class="st154" d="M212.7,545.7c-2.5,1.6-6.1,1.4-8.1-0.4h2.5v-5.5h6.5v-0.2C215.6,541.4,215.2,544.2,212.7,545.7z"/>
				<path class="st155" d="M212.7,545.7c-2.5,1.6-6,1.4-8-0.3h2.5v-5.5h6.5v-0.2C215.6,541.4,215.1,544.1,212.7,545.7z"/>
				<path class="st156" d="M212.6,545.6c-2.4,1.5-6,1.4-7.9-0.3h2.4v-5.4h6.4v-0.1C215.5,541.5,215,544.1,212.6,545.6z"/>
				<path class="st157" d="M212.6,545.6c-2.4,1.5-5.9,1.4-7.7-0.3h2.4v-5.4h6.3v-0.1C215.4,541.5,215,544.1,212.6,545.6z"/>
				<path class="st158" d="M212.5,545.6c-2.4,1.5-5.8,1.3-7.6-0.3h2.3v-5.4h6.3v0C215.3,541.5,214.9,544.1,212.5,545.6z"/>
				<path class="st159" d="M212.5,545.5c-2.3,1.5-5.7,1.3-7.5-0.3h2.2v-5.3h6.2v0C215.2,541.5,214.8,544,212.5,545.5z"/>
				<path class="st160" d="M212.4,545.5c-2.3,1.5-5.6,1.3-7.4-0.3h2.2v-5.3l-1.3-0.3c2.3-1.5,5.6-1.3,7.4,0.3
					C215.1,541.5,214.7,544,212.4,545.5z"/>
				<path class="st161" d="M212.4,545.4c-2.3,1.4-5.5,1.3-7.3-0.3h2.1v-5.3l-1.2-0.2c2.3-1.4,5.5-1.3,7.3,0.3
					C215,541.5,214.6,544,212.4,545.4z"/>
				<path class="st162" d="M212.3,545.4c-2.2,1.4-5.5,1.3-7.2-0.3h2v-5.2l-1.2-0.2c2.2-1.4,5.5-1.3,7.2,0.3S214.6,544,212.3,545.4z"
					/>
				<path class="st163" d="M212.3,545.3c-2.2,1.4-5.4,1.3-7.1-0.3h2v-5.2l-1.1-0.2c2.2-1.4,5.4-1.3,7.1,0.3
					C214.9,541.6,214.5,544,212.3,545.3z"/>
				<path class="st164" d="M212.2,545.3c-2.2,1.4-5.3,1.2-7-0.3h1.9v-5.1l-1.1-0.1c2.2-1.4,5.3-1.2,7,0.3
					C214.8,541.6,214.4,543.9,212.2,545.3z"/>
				<path class="st165" d="M212.2,545.3c-2.1,1.3-5.2,1.2-6.9-0.3h1.9v-5.1l-1-0.1c2.1-1.3,5.2-1.2,6.9,0.3
					C214.7,541.6,214.3,543.9,212.2,545.3z"/>
				<path class="st166" d="M212.1,545.2c-2.1,1.3-5.1,1.2-6.8-0.3h1.8v-5.1l-1,0c2.1-1.3,5.1-1.2,6.8,0.3
					C214.6,541.6,214.2,543.9,212.1,545.2z"/>
				<path class="st167" d="M212.1,545.2c-2.1,1.3-5.1,1.2-6.7-0.3h1.7v-5h-0.9c2.1-1.3,5.1-1.2,6.7,0.3
					C214.5,541.6,214.2,543.9,212.1,545.2z"/>
				<path class="st168" d="M212,545.1c-2,1.3-5,1.2-6.6-0.3h1.7v-4.9h-0.9c2-1.3,5-1.2,6.6,0.3C214.4,541.6,214.1,543.8,212,545.1z"
					/>
				<path class="st169" d="M212,545.1c-2,1.3-4.9,1.1-6.5-0.3h1.6v-4.9h-0.8c2-1.3,4.9-1.1,6.5,0.3C214.4,541.7,214,543.8,212,545.1
					z"/>
				<path class="st170" d="M211.9,545c-2,1.2-4.8,1.1-6.3-0.3h1.6V540h-0.8c2-1.2,4.8-1.1,6.3,0.3
					C214.3,541.7,213.9,543.8,211.9,545z"/>
				<path class="st171" d="M211.9,545c-1.9,1.2-4.7,1.1-6.2-0.3h1.5V540h-0.7c1.9-1.2,4.7-1.1,6.2,0.3
					C214.2,541.7,213.8,543.8,211.9,545z"/>
				<path class="st172" d="M211.9,545c-1.9,1.2-4.6,1.1-6.1-0.3h1.4v-4.6h-0.7c1.9-1.2,4.6-1.1,6.1,0.3
					C214.1,541.7,213.8,543.8,211.9,545z"/>
				<path class="st173" d="M211.8,544.9c-1.9,1.2-4.6,1.1-6-0.3h1.4v-4.5h-0.6c1.9-1.2,4.6-1.1,6,0.3
					C214,541.7,213.7,543.7,211.8,544.9z"/>
				<path class="st174" d="M211.8,544.9c-1.8,1.2-4.5,1-5.9-0.3h1.3v-4.5h-0.6c1.8-1.2,4.5-1,5.9,0.3
					C213.9,541.7,213.6,543.7,211.8,544.9z"/>
				<path class="st175" d="M211.7,544.8c-1.8,1.1-4.4,1-5.8-0.3h1.3v-4.4h-0.5c1.8-1.1,4.4-1,5.8,0.3
					C213.8,541.7,213.5,543.7,211.7,544.8z"/>
				<path class="st176" d="M211.7,544.8c-1.8,1.1-4.3,1-5.7-0.2h1.2v-4.3h-0.5c1.8-1.1,4.3-1,5.7,0.2
					C213.7,541.8,213.4,543.7,211.7,544.8z"/>
				<path class="st177" d="M211.6,544.7c-1.7,1.1-4.2,1-5.6-0.2h1.1v-4.2h-0.5c1.7-1.1,4.2-1,5.6,0.2
					C213.7,541.8,213.4,543.7,211.6,544.7z"/>
				<path class="st178" d="M211.6,544.7c-1.7,1.1-4.2,1-5.5-0.2h1.1v-4.1h-0.4c1.7-1.1,4.2-1,5.5,0.2
					C213.6,541.8,213.3,543.6,211.6,544.7z"/>
				<path class="st179" d="M211.5,544.7c-1.7,1.1-4.1,0.9-5.4-0.2h1v-4h-0.4c1.7-1.1,4.1-0.9,5.4,0.2
					C213.5,541.8,213.2,543.6,211.5,544.7z"/>
				<path class="st180" d="M211.5,544.6c-1.6,1-4,0.9-5.3-0.2h1v-4h-0.3c1.6-1,4-0.9,5.3,0.2C213.4,541.8,213.1,543.6,211.5,544.6z"
					/>
				<path class="st181" d="M211.4,544.6c-1.6,1-3.9,0.9-5.2-0.2h0.9v-3.9h-0.3c1.6-1,3.9-0.9,5.2,0.2
					C213.3,541.8,213,543.6,211.4,544.6z"/>
				<path class="st182" d="M211.4,544.5c-1.6,1-3.8,0.9-5.1-0.2h0.8v-3.8h-0.2c1.6-1,3.8-0.9,5.1,0.2
					C213.2,541.8,213,543.5,211.4,544.5z"/>
				<path class="st183" d="M211.3,544.5c-1.5,1-3.8,0.9-4.9-0.2h0.8v-3.7H207c1.5-1,3.8-0.9,4.9,0.2
					C213.1,541.9,212.9,543.5,211.3,544.5z"/>
				<path class="st184" d="M211.3,544.4c-1.5,0.9-3.7,0.9-4.8-0.2h0.7v-3.6H207c1.5-0.9,3.7-0.9,4.8,0.2
					C213.1,541.9,212.8,543.5,211.3,544.4z"/>
				<path class="st185" d="M211.2,544.4c-1.5,0.9-3.6,0.8-4.7-0.2h0.7v-3.6h-0.1c1.5-0.9,3.6-0.8,4.7,0.2
					C213,541.9,212.7,543.5,211.2,544.4z"/>
				<path class="st186" d="M211.2,544.4c-1.4,0.9-3.5,0.8-4.6-0.2h0.6v-3.5h0c1.4-0.9,3.5-0.8,4.6,0.2
					C212.9,541.9,212.6,543.5,211.2,544.4z"/>
				<path class="st187" d="M211.1,544.3c-1.4,0.9-3.4,0.8-4.5-0.2c-1.1-1-0.8-2.5,0.6-3.4c1.4-0.9,3.4-0.8,4.5,0.2
					C212.8,541.9,212.5,543.4,211.1,544.3z"/>
				<path class="st188" d="M211.1,544.3c-1.4,0.9-3.3,0.8-4.4-0.2c-1.1-1-0.8-2.5,0.5-3.3c1.4-0.9,3.3-0.8,4.4,0.2
					C212.7,541.9,212.5,543.4,211.1,544.3z"/>
				<path class="st189" d="M211.1,544.2c-1.3,0.8-3.3,0.8-4.3-0.2c-1-0.9-0.8-2.4,0.5-3.2c1.3-0.8,3.3-0.8,4.3,0.2
					C212.6,541.9,212.4,543.4,211.1,544.2z"/>
				<path class="st190" d="M211,544.2c-1.3,0.8-3.2,0.7-4.2-0.2s-0.8-2.3,0.5-3.2c1.3-0.8,3.2-0.7,4.2,0.2
					C212.5,542,212.3,543.4,211,544.2z"/>
				<path class="st191" d="M211,544.1c-1.3,0.8-3.1,0.7-4.1-0.2c-1-0.9-0.8-2.3,0.5-3.1s3.1-0.7,4.1,0.2S212.2,543.3,211,544.1z"/>
				<path class="st192" d="M210.9,544.1c-1.2,0.8-3,0.7-4-0.2c-1-0.9-0.7-2.2,0.5-3s3-0.7,4,0.2C212.4,542,212.1,543.3,210.9,544.1z
					"/>
				<path class="st193" d="M210.9,544.1c-1.2,0.8-2.9,0.7-3.9-0.2c-0.9-0.9-0.7-2.2,0.5-2.9c1.2-0.8,2.9-0.7,3.9,0.2
					S212.1,543.3,210.9,544.1z"/>
				<path class="st194" d="M210.8,544c-1.2,0.7-2.9,0.7-3.8-0.2c-0.9-0.8-0.7-2.1,0.5-2.8c1.2-0.7,2.9-0.7,3.8,0.2
					C212.2,542,212,543.3,210.8,544z"/>
				<path class="st195" d="M210.8,544c-1.1,0.7-2.8,0.6-3.7-0.2c-0.9-0.8-0.7-2,0.4-2.8c1.1-0.7,2.8-0.6,3.7,0.2
					C212.1,542,211.9,543.3,210.8,544z"/>
				<path class="st196" d="M210.7,543.9c-1.1,0.7-2.7,0.6-3.6-0.2c-0.9-0.8-0.7-2,0.4-2.7c1.1-0.7,2.7-0.6,3.6,0.2
					C212,542,211.8,543.2,210.7,543.9z"/>
				<path class="st197" d="M210.7,543.9c-1.1,0.7-2.6,0.6-3.4-0.2c-0.8-0.8-0.6-1.9,0.4-2.6c1.1-0.7,2.6-0.6,3.4,0.2
					S211.7,543.2,210.7,543.9z"/>
				<path class="st198" d="M210.6,543.8c-1,0.7-2.5,0.6-3.3-0.1c-0.8-0.7-0.6-1.9,0.4-2.5c1-0.7,2.5-0.6,3.3,0.1
					C211.8,542.1,211.7,543.2,210.6,543.8z"/>
				<path class="st199" d="M210.6,543.8c-1,0.6-2.4,0.6-3.2-0.1c-0.8-0.7-0.6-1.8,0.4-2.4c1-0.6,2.4-0.6,3.2,0.1
					S211.6,543.2,210.6,543.8z"/>
				<path class="st200" d="M210.5,543.8c-1,0.6-2.4,0.5-3.1-0.1c-0.8-0.7-0.6-1.7,0.4-2.3c1-0.6,2.4-0.5,3.1,0.1
					S211.5,543.2,210.5,543.8z"/>
				<path class="st201" d="M210.5,543.7c-0.9,0.6-2.3,0.5-3-0.1s-0.6-1.7,0.4-2.3c0.9-0.6,2.3-0.5,3,0.1S211.4,543.1,210.5,543.7z"
					/>
				<path class="st202" d="M210.4,543.7c-0.9,0.6-2.2,0.5-2.9-0.1c-0.7-0.6-0.5-1.6,0.4-2.2c0.9-0.6,2.2-0.5,2.9,0.1
					C211.5,542.1,211.3,543.1,210.4,543.7z"/>
				<path class="st203" d="M210.4,543.6c-0.9,0.5-2.1,0.5-2.8-0.1c-0.7-0.6-0.5-1.6,0.3-2.1s2.1-0.5,2.8,0.1
					C211.4,542.1,211.3,543.1,210.4,543.6z"/>
				<path class="st204" d="M210.3,543.6c-0.8,0.5-2,0.5-2.7-0.1c-0.7-0.6-0.5-1.5,0.3-2s2-0.5,2.7,0.1
					C211.3,542.2,211.2,543.1,210.3,543.6z"/>
				<path class="st205" d="M210.3,543.5c-0.8,0.5-2,0.5-2.6-0.1c-0.6-0.6-0.5-1.4,0.3-1.9c0.8-0.5,2-0.5,2.6,0.1
					C211.2,542.2,211.1,543,210.3,543.5z"/>
				<path class="st205" d="M210.2,543.5c-0.8,0.5-1.9,0.4-2.5-0.1c-0.6-0.5-0.5-1.4,0.3-1.9c0.8-0.5,1.9-0.4,2.5,0.1
					C211.2,542.2,211,543,210.2,543.5z"/>
				<path class="st206" d="M210.2,543.5c-0.7,0.5-1.8,0.4-2.4-0.1c-0.6-0.5-0.4-1.3,0.3-1.8s1.8-0.4,2.4,0.1S210.9,543,210.2,543.5z
					"/>
				<path class="st207" d="M210.2,543.4c-0.7,0.4-1.7,0.4-2.3-0.1c-0.5-0.5-0.4-1.3,0.3-1.7s1.7-0.4,2.3,0.1
					C211,542.2,210.9,543,210.2,543.4z"/>
				<path class="st208" d="M210.1,543.4c-0.7,0.4-1.6,0.4-2.2-0.1c-0.5-0.5-0.4-1.2,0.3-1.6c0.7-0.4,1.6-0.4,2.2,0.1
					C210.9,542.2,210.8,543,210.1,543.4z"/>
				<path class="st209" d="M210.1,543.3c-0.6,0.4-1.5,0.4-2-0.1s-0.4-1.1,0.3-1.5c0.6-0.4,1.5-0.4,2,0.1
					C210.8,542.2,210.7,542.9,210.1,543.3z"/>
				<path class="st210" d="M210,543.3c-0.6,0.4-1.5,0.3-1.9-0.1s-0.4-1.1,0.2-1.5c0.6-0.4,1.5-0.3,1.9,0.1
					C210.7,542.3,210.6,542.9,210,543.3z"/>
				<path class="st211" d="M210,543.2c-0.6,0.4-1.4,0.3-1.8-0.1c-0.4-0.4-0.3-1,0.2-1.4c0.6-0.4,1.4-0.3,1.8,0.1
					C210.6,542.3,210.5,542.9,210,543.2z"/>
				<path class="st211" d="M209.9,543.2c-0.5,0.3-1.3,0.3-1.7-0.1c-0.4-0.4-0.3-1,0.2-1.3c0.5-0.3,1.3-0.3,1.7,0.1
					C210.5,542.3,210.5,542.9,209.9,543.2z"/>
				<path class="st212" d="M209.9,543.2c-0.5,0.3-1.2,0.3-1.6-0.1c-0.4-0.4-0.3-0.9,0.2-1.2c0.5-0.3,1.2-0.3,1.6,0.1
					C210.5,542.3,210.4,542.8,209.9,543.2z"/>
				<path class="st213" d="M209.8,543.1c-0.5,0.3-1.1,0.3-1.5-0.1c-0.4-0.3-0.3-0.8,0.2-1.1c0.5-0.3,1.1-0.3,1.5,0.1
					C210.4,542.3,210.3,542.8,209.8,543.1z"/>
				<path class="st214" d="M209.8,543.1c-0.4,0.3-1.1,0.2-1.4-0.1c-0.3-0.3-0.3-0.8,0.2-1.1c0.4-0.3,1.1-0.2,1.4,0.1
					C210.3,542.3,210.2,542.8,209.8,543.1z"/>
				<path class="st214" d="M209.7,543c-0.4,0.3-1,0.2-1.3-0.1c-0.3-0.3-0.2-0.7,0.2-1s1-0.2,1.3,0.1
					C210.2,542.3,210.1,542.8,209.7,543z"/>
				<path class="st215" d="M209.7,543c-0.4,0.2-0.9,0.2-1.2-0.1c-0.3-0.3-0.2-0.7,0.1-0.9c0.4-0.2,0.9-0.2,1.2,0.1
					C210.1,542.4,210.1,542.8,209.7,543z"/>
				<path class="st216" d="M209.6,542.9c-0.3,0.2-0.8,0.2-1.1,0c-0.3-0.2-0.2-0.6,0.1-0.8s0.8-0.2,1.1,0
					C210,542.4,210,542.7,209.6,542.9z"/>
				<path class="st216" d="M209.6,542.9c-0.3,0.2-0.7,0.2-1,0c-0.2-0.2-0.2-0.5,0.1-0.7c0.3-0.2,0.7-0.2,1,0
					C209.9,542.4,209.9,542.7,209.6,542.9z"/>
				<path class="st217" d="M209.5,542.9c-0.3,0.2-0.7,0.2-0.9,0c-0.2-0.2-0.2-0.5,0.1-0.6c0.3-0.2,0.7-0.2,0.9,0
					C209.9,542.4,209.8,542.7,209.5,542.9z"/>
				<path class="st217" d="M209.5,542.8c-0.2,0.1-0.6,0.1-0.8,0c-0.2-0.2-0.1-0.4,0.1-0.6c0.2-0.1,0.6-0.1,0.8,0
					C209.8,542.4,209.7,542.7,209.5,542.8z"/>
				<path class="st218" d="M209.4,542.8c-0.2,0.1-0.5,0.1-0.6,0c-0.2-0.1-0.1-0.4,0.1-0.5c0.2-0.1,0.5-0.1,0.6,0
					C209.7,542.4,209.6,542.7,209.4,542.8z"/>
				<path class="st219" d="M209.4,542.7c-0.2,0.1-0.4,0.1-0.5,0c-0.1-0.1-0.1-0.3,0.1-0.4s0.4-0.1,0.5,0
					C209.6,542.4,209.6,542.6,209.4,542.7z"/>
				<path class="st219" d="M209.4,542.7c-0.1,0.1-0.3,0.1-0.4,0c-0.1-0.1-0.1-0.2,0.1-0.3c0.1-0.1,0.3-0.1,0.4,0
					S209.5,542.6,209.4,542.7z"/>
				<path class="st220" d="M209.3,542.6c-0.1,0.1-0.2,0.1-0.3,0c-0.1-0.1-0.1-0.2,0-0.2c0.1-0.1,0.2-0.1,0.3,0
					C209.4,542.5,209.4,542.6,209.3,542.6z"/>
				<path class="st221" d="M209.3,542.6c-0.1,0-0.2,0-0.2,0c-0.1,0,0-0.1,0-0.2c0.1,0,0.2,0,0.2,0
					C209.3,542.5,209.3,542.6,209.3,542.6z"/>
				<path class="st221" d="M209.2,542.6c0,0-0.1,0-0.1,0C209.1,542.5,209.1,542.5,209.2,542.6C209.2,542.5,209.2,542.5,209.2,542.6
					C209.3,542.5,209.2,542.5,209.2,542.6z"/>
			</g>
		</g>
		<linearGradient id="SVGID_52_" gradientUnits="userSpaceOnUse" x1="215.6773" y1="551.0799" x2="230.4101" y2="551.0799">
			<stop  offset="4.830920e-003" style="stop-color:#E0F2F5"/>
			<stop  offset="0.1452" style="stop-color:#D6EEF3"/>
			<stop  offset="0.3686" style="stop-color:#BDE5EE"/>
			<stop  offset="0.5664" style="stop-color:#A4DCE9"/>
			<stop  offset="0.9821" style="stop-color:#5BC6DD"/>
			<stop  offset="1" style="stop-color:#57C5DD"/>
		</linearGradient>
		<path class="st222" d="M223.7,554.5c-0.6,0-1.1-0.2-1.6-0.5l-6.1-4.7c-0.3-0.3-0.5-0.8-0.3-1.3c0.2-0.4,0.6-0.6,1-0.3l6.1,4.7
			c0.5,0.4,1.3,0.4,1.7,0l4.8-3.6c0.3-0.3,0.8-0.1,1,0.3c0.2,0.4,0.1,1-0.3,1.3l-4.8,3.6C224.8,554.4,224.3,554.5,223.7,554.5z"/>
	</g>
	<g>
		
			<radialGradient id="SVGID_53_" cx="169.332" cy="547.7968" r="50.1204" gradientTransform="matrix(1.2069 0 0 1.5961 -69.2038 -345.7298)" gradientUnits="userSpaceOnUse">
			<stop  offset="0" style="stop-color:#2AC3EA"/>
			<stop  offset="6.596173e-002" style="stop-color:#2BBBE4"/>
			<stop  offset="0.1762" style="stop-color:#24AADA"/>
			<stop  offset="0.3162" style="stop-color:#1B91C9"/>
			<stop  offset="0.4457" style="stop-color:#1578B8"/>
			<stop  offset="1" style="stop-color:#232B62"/>
		</radialGradient>
		<polygon class="st223" points="200,538.3 209.8,530.7 204.3,527.5 199.6,531.9 		"/>
		
			<radialGradient id="SVGID_54_" cx="222.6471" cy="539.5453" r="74.7921" gradientTransform="matrix(1.2069 0 0 1.5961 -69.2038 -345.7298)" gradientUnits="userSpaceOnUse">
			<stop  offset="0" style="stop-color:#2AC3EA"/>
			<stop  offset="0.1174" style="stop-color:#2BC0E7"/>
			<stop  offset="0.2085" style="stop-color:#2AB9E3"/>
			<stop  offset="0.2908" style="stop-color:#25AEDC"/>
			<stop  offset="0.3678" style="stop-color:#1FA0D3"/>
			<stop  offset="0.4412" style="stop-color:#1A8EC7"/>
			<stop  offset="0.5109" style="stop-color:#1579B9"/>
			<stop  offset="0.515" style="stop-color:#1578B8"/>
			<stop  offset="1" style="stop-color:#273675"/>
		</radialGradient>
		<path class="st224" d="M262.9,527.1c-0.5-0.4-1.1-0.8-1.6-1.4l-20.9-20.2c-3.8-3.7-7.7-4.6-10.7-2.6c-0.1,0.1-0.1,0.1-0.2,0.2l0,0
			l-28.8,22.1l2.6,1.1l10.1,6.1l13.7,12.9l10.8,7.6l0.5,0.1c2.5-2.8,5.4-5.2,6.9-9.3c2.7-6.2,10.2-8,14.6-13c0.4,0.4,0.9,0.7,1.3,1
			C262.1,530.5,262.4,528.8,262.9,527.1z"/>
		
			<radialGradient id="SVGID_55_" cx="300.558" cy="569.7101" r="45.0479" gradientTransform="matrix(1.2069 0 0 1.5961 -69.2038 -345.7298)" gradientUnits="userSpaceOnUse">
			<stop  offset="0" style="stop-color:#2AC3EA"/>
			<stop  offset="6.596173e-002" style="stop-color:#2BBBE4"/>
			<stop  offset="0.1762" style="stop-color:#24AADA"/>
			<stop  offset="0.3162" style="stop-color:#1B91C9"/>
			<stop  offset="0.4457" style="stop-color:#1578B8"/>
			<stop  offset="1" style="stop-color:#232B62"/>
		</radialGradient>
		<path class="st225" d="M272.1,518c-0.4,0-0.9,0.2-1.2,0.5l0,0l-28.2,21.6l1,5.6l1.1-0.7c-1.6,3.3-4.1,5.5-6.3,8l3.2,0.9l27.6-21.3
			c0.1-0.1,0.3-0.1,0.4-0.2c0.4-0.3,0.7-0.6,1.1-0.9l0,0l0,0c2.1-2.1,3.3-5.9,3.3-10.6v-0.4C274,519.1,273.1,518,272.1,518z"/>
		<g>
			<path class="st0" d="M233.4,501.9c1.8,0.1,3.6,0.9,5.5,2.4C237.1,502.8,235.2,502,233.4,501.9z"/>
			<path class="st0" d="M246.3,541.8v-0.4c0-1.4-0.9-2.6-1.9-2.6s-1.9,1.1-1.9,2.6v0.4c0,3.4-0.8,5.9-2.3,6.9
				c-1.6,1.1-4.1,0.3-6.6-2.1l-20.9-20.2c-3.2-3.1-6.5-4.2-9.3-3.3l17.2-13.2l-20,15.3l2.6,1.1l10.1,6.1l13.7,12.9l10.8,7.6l0.5,0.1
				c2.5-2.8,5.4-5.2,6.9-9.3c0.3-0.6,0.6-1.2,0.9-1.7C246.3,541.9,246.3,541.9,246.3,541.8z"/>
		</g>
		<g>
			<path class="st19" d="M237.9,555.2c-2.3,0-4.8-1.2-7.3-3.6l-20.9-20.2c-2.5-2.4-5-3.2-6.6-2.1c-1.4,1-2.3,3.5-2.3,6.9
				c0,1.4-0.9,2.6-1.9,2.6c-1.1,0-1.9-1.1-1.9-2.6c0-5.4,1.6-9.6,4.4-11.5c3-2,6.9-1.1,10.7,2.6l20.9,20.2c2.5,2.4,5,3.2,6.6,2.1
				c1.4-1,2.3-3.5,2.3-6.9v-0.4c0-1.4,0.9-2.6,1.9-2.6s1.9,1.1,1.9,2.6v0.4c0,5.4-1.6,9.6-4.4,11.5
				C240.3,554.9,239.1,555.2,237.9,555.2z"/>
		</g>
	</g>
</g>
<path class="st46" d="M310.2,321.8c0,0,1.7-5.2,1.8-11.2c-0.1,1-0.4,2-1.2,2.7c-1.7,1.4-8.6,7.7-8.6,7.7c0.1,1,0.2,1.5,0.3,1.8
	c0.2,0.3,0.2,0.7,0.2,1.1l0,0.7c0,0.4,0.2,0.9,0.5,1c0.5,0.2,1,0,1-0.1c0,0,0,0,0,0c0.2-2.1,1.1-4,2.4-5.2
	C308.2,318.8,310,318.1,310.2,321.8z"/>
<g>
	
		<radialGradient id="SVGID_56_" cx="568.3619" cy="534.6445" r="172.8558" gradientTransform="matrix(1.2069 0 0 1.5961 -69.2038 -345.7298)" gradientUnits="userSpaceOnUse">
		<stop  offset="0" style="stop-color:#2AC3EA"/>
		<stop  offset="6.596173e-002" style="stop-color:#2BBBE4"/>
		<stop  offset="0.1762" style="stop-color:#24AADA"/>
		<stop  offset="0.3162" style="stop-color:#1B91C9"/>
		<stop  offset="0.4457" style="stop-color:#1578B8"/>
		<stop  offset="1" style="stop-color:#232B62"/>
	</radialGradient>
	<path class="st226" d="M460.8,382l-53.3-40.7c-1.2-0.9-2.3-1-3.2-0.3l0,0l-42.5,32.5l15.7,37.6v34.5c0,4.7,2.2,10.2,4.9,12.3
		l15.3,11.7l24.4,105.8l42-32c0,0,0,0,0.1,0l0.1-0.1l0,0c1-0.8,1.6-2.6,1.6-5.1V394.3C465.6,389.6,463.4,384.1,460.8,382z"/>
	
		<linearGradient id="SVGID_57_" gradientUnits="userSpaceOnUse" x1="353.9091" y1="354.0723" x2="495.6227" y2="381.7506" gradientTransform="matrix(0.866 0.5 0 1 27.4391 -102.9169)">
		<stop  offset="0" style="stop-color:#2AC3EA"/>
		<stop  offset="6.596173e-002" style="stop-color:#2BBBE4"/>
		<stop  offset="0.1762" style="stop-color:#24AADA"/>
		<stop  offset="0.3162" style="stop-color:#1B91C9"/>
		<stop  offset="0.4457" style="stop-color:#1578B8"/>
		<stop  offset="1" style="stop-color:#273675"/>
	</linearGradient>
	<path class="st227" d="M418.4,575.4l-53.3-40.7c-2.7-2-4.9-7.5-4.9-12.3V378.5c0-4.7,2.2-6.9,4.9-4.9l53.3,40.7
		c2.7,2,4.9,7.5,4.9,12.3v143.9C423.3,575.3,421.1,577.4,418.4,575.4z"/>
	<g>
		<linearGradient id="SVGID_58_" gradientUnits="userSpaceOnUse" x1="351.2099" y1="367.3486" x2="527.6019" y2="401.8">
			<stop  offset="0" style="stop-color:#2AC3EA"/>
			<stop  offset="0.1174" style="stop-color:#2BC0E7"/>
			<stop  offset="0.2085" style="stop-color:#2AB9E3"/>
			<stop  offset="0.2908" style="stop-color:#25AEDC"/>
			<stop  offset="0.3678" style="stop-color:#1FA0D3"/>
			<stop  offset="0.4412" style="stop-color:#1A8EC7"/>
			<stop  offset="0.5109" style="stop-color:#1579B9"/>
			<stop  offset="0.515" style="stop-color:#1578B8"/>
			<stop  offset="1" style="stop-color:#273675"/>
		</linearGradient>
		<path class="st228" d="M365.1,373.7l53.3,40.7c1.1,0.9,2.2,2.3,3,4.1l42.3-32.4c-0.8-1.7-1.8-3.2-3-4.1l-53.3-40.7
			c-1.2-0.9-2.3-1-3.2-0.3l0,0l-42.1,32.2C362.9,372.7,364,372.8,365.1,373.7z"/>
		<linearGradient id="SVGID_59_" gradientUnits="userSpaceOnUse" x1="361.6837" y1="373.5377" x2="361.7245" y2="373.5456">
			<stop  offset="0" style="stop-color:#2AC3EA"/>
			<stop  offset="0.1174" style="stop-color:#2BC0E7"/>
			<stop  offset="0.2085" style="stop-color:#2AB9E3"/>
			<stop  offset="0.2908" style="stop-color:#25AEDC"/>
			<stop  offset="0.3678" style="stop-color:#1FA0D3"/>
			<stop  offset="0.4412" style="stop-color:#1A8EC7"/>
			<stop  offset="0.5109" style="stop-color:#1579B9"/>
			<stop  offset="0.515" style="stop-color:#1578B8"/>
			<stop  offset="1" style="stop-color:#273675"/>
		</linearGradient>
		<path class="st229" d="M361.7,373.5L361.7,373.5L361.7,373.5C361.7,373.5,361.7,373.5,361.7,373.5z"/>
	</g>
	<g>
		<path class="st12" d="M421.7,416.3c-0.8-1.8-2.1-3.1-3.3-3.9l-53.3-40.7c-0.2-0.1-0.4-0.3-0.5-0.4l-2.4,1.9c0.8-0.5,1.9-0.4,3,0.5
			l53.3,40.7c1.1,0.9,2.2,2.3,3,4.1l42.3-32.4c-0.2-0.5-0.5-1-0.8-1.4L421.7,416.3z"/>
		<linearGradient id="SVGID_60_" gradientUnits="userSpaceOnUse" x1="361.6837" y1="371.5641" x2="361.7245" y2="371.572">
			<stop  offset="0" style="stop-color:#2AC3EA"/>
			<stop  offset="0.1174" style="stop-color:#2BC0E7"/>
			<stop  offset="0.2085" style="stop-color:#2AB9E3"/>
			<stop  offset="0.2908" style="stop-color:#25AEDC"/>
			<stop  offset="0.3678" style="stop-color:#1FA0D3"/>
			<stop  offset="0.4412" style="stop-color:#1A8EC7"/>
			<stop  offset="0.5109" style="stop-color:#1579B9"/>
			<stop  offset="0.515" style="stop-color:#1578B8"/>
			<stop  offset="1" style="stop-color:#273675"/>
		</linearGradient>
		<path class="st230" d="M361.7,371.6L361.7,371.6L361.7,371.6C361.7,371.6,361.7,371.6,361.7,371.6z"/>
	</g>
	<path class="st231" d="M417.1,448.8c-0.3,0-0.6-0.1-0.9-0.3l-49.4-37.7c-1.1-0.8-1.9-2.9-1.9-4.8V388c0-1.1,0.3-1.9,0.8-2.3
		c0.4-0.3,1-0.3,1.5,0.1l49.4,37.7c1.1,0.8,1.9,2.9,1.9,4.8v17.9c0,1.1-0.3,1.9-0.8,2.3C417.6,448.7,417.4,448.8,417.1,448.8z
		 M366.4,386.6c-0.1,0-0.2,0-0.2,0.1c-0.2,0.2-0.4,0.7-0.4,1.3v17.9c0,1.5,0.7,3.2,1.5,3.8l49.4,37.7c0.2,0.1,0.5,0.3,0.7,0.1
		c0.2-0.2,0.4-0.7,0.4-1.3v-17.9c0-1.5-0.7-3.2-1.5-3.8l-49.4-37.7C366.7,386.7,366.6,386.6,366.4,386.6z"/>
	<path class="st231" d="M395.2,414.9l-6.9-5.3c-0.3-0.3-0.6-0.9-0.6-1.5l0,0c0-0.6,0.3-0.9,0.6-0.6l6.9,5.3c0.3,0.3,0.6,0.9,0.6,1.5
		l0,0C395.8,414.9,395.5,415.2,395.2,414.9z"/>
	<path class="st231" d="M417.1,484.6c-0.3,0-0.6-0.1-0.9-0.3l-49.4-37.7c-1.1-0.8-1.9-2.9-1.9-4.8v-17.9c0-1.1,0.3-1.9,0.8-2.3
		c0.4-0.3,1-0.3,1.5,0.1l49.4,37.7c1.1,0.8,1.9,2.9,1.9,4.8V482c0,1.1-0.3,1.9-0.8,2.3C417.6,484.5,417.4,484.6,417.1,484.6z
		 M366.4,422.4c-0.1,0-0.2,0-0.2,0.1c-0.2,0.2-0.4,0.7-0.4,1.3v17.9c0,1.5,0.7,3.2,1.5,3.8l49.4,37.7c0.2,0.1,0.5,0.3,0.7,0.1
		c0.2-0.2,0.4-0.7,0.4-1.3v-17.9c0-1.5-0.7-3.2-1.5-3.8l-49.4-37.7C366.7,422.5,366.6,422.4,366.4,422.4z"/>
	<path class="st231" d="M395.2,450.7l-6.9-5.3c-0.3-0.3-0.6-0.9-0.6-1.5l0,0c0-0.6,0.3-0.9,0.6-0.6l6.9,5.3c0.3,0.3,0.6,0.9,0.6,1.5
		l0,0C395.8,450.7,395.5,451,395.2,450.7z"/>
	<g>
		<path class="st232" d="M416.4,519.5l-49.4-37.7c-0.9-0.7-1.7-2.7-1.7-4.3v-17.9c0-1.7,0.8-2.4,1.7-1.7l49.4,37.7
			c0.9,0.7,1.7,2.7,1.7,4.3v17.9C418.2,519.5,417.4,520.3,416.4,519.5z"/>
	</g>
	<path class="st231" d="M417.1,556.2c-0.3,0-0.6-0.1-0.9-0.3l-49.4-37.7c-1.1-0.8-1.9-2.9-1.9-4.8v-17.9c0-1.1,0.3-1.9,0.8-2.3
		c0.4-0.3,1-0.3,1.5,0.1l49.4,37.7c1.1,0.8,1.9,2.9,1.9,4.8v17.9c0,1.1-0.3,1.9-0.8,2.3C417.6,556.1,417.4,556.2,417.1,556.2z
		 M366.4,494c-0.1,0-0.2,0-0.2,0.1c-0.2,0.2-0.4,0.7-0.4,1.3v17.9c0,1.5,0.7,3.2,1.5,3.8l49.4,37.7c0.2,0.1,0.5,0.3,0.7,0.1
		c0.2-0.2,0.4-0.7,0.4-1.3v-17.9c0-1.5-0.7-3.2-1.5-3.8l-49.4-37.7C366.7,494.1,366.6,494,366.4,494z"/>
	<path class="st232" d="M395.2,522.3l-6.9-5.3c-0.3-0.3-0.6-0.9-0.6-1.5l0,0c0-0.6,0.3-0.9,0.6-0.6l6.9,5.3c0.3,0.3,0.6,0.9,0.6,1.5
		l0,0C395.8,522.3,395.5,522.6,395.2,522.3z"/>
	<path class="st232" d="M376.7,500.6l-6.9-5.3c-0.3-0.3-0.6-0.9-0.6-1.5l0,0c0-0.6,0.3-0.9,0.6-0.6l6.9,5.3c0.3,0.3,0.6,0.9,0.6,1.5
		l0,0C377.3,500.6,377.1,500.9,376.7,500.6z"/>
	<polygon class="st233" points="380.6,468.3 347.4,493.6 347.4,476.3 369.3,459.6 	"/>
	<polygon class="st234" points="367.1,461.3 376.9,468.8 379.1,467.1 369.3,459.6 	"/>
	
		<radialGradient id="SVGID_61_" cx="405.2529" cy="545.7999" r="62.4644" gradientTransform="matrix(1.2069 0 0 1.5961 -69.2038 -345.7298)" gradientUnits="userSpaceOnUse">
		<stop  offset="0" style="stop-color:#2AC3EA"/>
		<stop  offset="6.596173e-002" style="stop-color:#2BBBE4"/>
		<stop  offset="0.1762" style="stop-color:#24AADA"/>
		<stop  offset="0.3162" style="stop-color:#1B91C9"/>
		<stop  offset="0.4457" style="stop-color:#1578B8"/>
		<stop  offset="1" style="stop-color:#232B62"/>
	</radialGradient>
	<path class="st235" d="M397.3,520.9l19.7-24.6c0,0-0.2-0.5-1-0.9L381.5,469l-21.7,14.3l11.9,20.7L397.3,520.9z"/>
	
		<radialGradient id="SVGID_62_" cx="216.0601" cy="25.8786" r="34.1341" gradientTransform="matrix(1.0452 -0.7981 0 1.843 119.1595 576.6536)" gradientUnits="userSpaceOnUse">
		<stop  offset="0" style="stop-color:#2AC3EA"/>
		<stop  offset="0.1147" style="stop-color:#2EA4CB"/>
		<stop  offset="0.3588" style="stop-color:#2D749E"/>
		<stop  offset="0.5782" style="stop-color:#285581"/>
		<stop  offset="0.7649" style="stop-color:#253F6F"/>
		<stop  offset="0.9115" style="stop-color:#233165"/>
		<stop  offset="1" style="stop-color:#232B62"/>
	</radialGradient>
	<polygon class="st236" points="381.8,469.2 348.3,494.7 348.3,477.4 370.4,460.5 	"/>
	<g>
		<path class="st233" d="M418.2,500c0-1.3-0.5-2.8-1.1-3.7l-23,17.6v17.3l24.1-18.3V500z"/>
		<path class="st234" d="M414.7,498l3.5,2.6V500c0-1.3-0.5-2.8-1.1-3.7L414.7,498z"/>
		
			<radialGradient id="SVGID_63_" cx="372.9797" cy="469.2422" r="77.7916" gradientTransform="matrix(1.2069 0 0 1.5961 -69.2038 -345.7298)" gradientUnits="userSpaceOnUse">
			<stop  offset="0" style="stop-color:#2AC3EA"/>
			<stop  offset="0.1147" style="stop-color:#2EA4CB"/>
			<stop  offset="0.3588" style="stop-color:#2D749E"/>
			<stop  offset="0.5782" style="stop-color:#285581"/>
			<stop  offset="0.7649" style="stop-color:#253F6F"/>
			<stop  offset="0.9115" style="stop-color:#233165"/>
			<stop  offset="1" style="stop-color:#232B62"/>
		</radialGradient>
		<path class="st237" d="M418.2,500c0-0.8-0.2-1.6-0.4-2.4L395.1,515v17.3l23.1-17.6V500z"/>
		<linearGradient id="SVGID_64_" gradientUnits="userSpaceOnUse" x1="338.7975" y1="493.251" x2="423.9128" y2="518.4645">
			<stop  offset="0" style="stop-color:#2AC3EA"/>
			<stop  offset="0.2801" style="stop-color:#2CC1E8"/>
			<stop  offset="0.381" style="stop-color:#2DBBE2"/>
			<stop  offset="0.4529" style="stop-color:#2DB2DA"/>
			<stop  offset="0.511" style="stop-color:#2DA6D0"/>
			<stop  offset="0.5609" style="stop-color:#2C98C3"/>
			<stop  offset="0.605" style="stop-color:#2C87B4"/>
			<stop  offset="0.645" style="stop-color:#2C74A4"/>
			<stop  offset="0.6816" style="stop-color:#2A6094"/>
			<stop  offset="0.7142" style="stop-color:#274B83"/>
			<stop  offset="0.7406" style="stop-color:#273675"/>
		</linearGradient>
		<path class="st238" d="M398,509.7L348.6,472c-0.4-0.3-0.8-0.3-1.1-0.1l0,0l-1.5,1.2l0.9,0.1c0,0.2,0,0.3,0,0.5v17.9
			c0,1.7,0.8,3.6,1.7,4.3l49,37.4v1.6l1.5-1.2l0,0c0.4-0.3,0.6-0.9,0.6-1.8V514C399.7,512.4,398.9,510.4,398,509.7z"/>
		<g>
			<linearGradient id="SVGID_65_" gradientUnits="userSpaceOnUse" x1="345.3504" y1="503.9929" x2="422.7392" y2="503.9929">
				<stop  offset="0" style="stop-color:#2AC3EA"/>
				<stop  offset="6.596173e-002" style="stop-color:#2BBBE4"/>
				<stop  offset="0.1762" style="stop-color:#24AADA"/>
				<stop  offset="0.3162" style="stop-color:#1B91C9"/>
				<stop  offset="0.4457" style="stop-color:#1578B8"/>
				<stop  offset="1" style="stop-color:#273675"/>
			</linearGradient>
			<path class="st239" d="M396.4,534.8l-49.4-37.7c-0.9-0.7-1.7-2.7-1.7-4.3v-17.9c0-1.7,0.8-2.4,1.7-1.7l49.4,37.7
				c0.9,0.7,1.7,2.7,1.7,4.3v17.9C398.2,534.8,397.4,535.5,396.4,534.8z"/>
			<path class="st231" d="M375.2,501.8l-6.9-5.3c-0.3-0.3-0.6-0.9-0.6-1.5l0,0c0-0.6,0.3-0.9,0.6-0.6l6.9,5.3
				c0.3,0.3,0.6,0.9,0.6,1.5l0,0C375.8,501.8,375.5,502,375.2,501.8z"/>
		</g>
	</g>
	<path class="st11" d="M368.2,462.2v17.3l35.6,26.9l13.2-10.1c0,0-0.3-0.5-1-0.9l-45.6-34.8L368.2,462.2z"/>
</g>
<g>
	<polygon class="st0" points="364.5,592.5 340.2,611.1 373.9,636.9 398.2,618.2 	"/>
	
		<linearGradient id="SVGID_66_" gradientUnits="userSpaceOnUse" x1="332.6164" y1="521.6627" x2="405.6079" y2="535.9188" gradientTransform="matrix(0.866 0.5 0 1.1547 38.518 -184.7345)">
		<stop  offset="4.830920e-003" style="stop-color:#E0F2F5"/>
		<stop  offset="0.1521" style="stop-color:#D6EEF3"/>
		<stop  offset="0.3982" style="stop-color:#BCE4EE"/>
		<stop  offset="0.7108" style="stop-color:#8FD4E5"/>
		<stop  offset="1" style="stop-color:#57C5DD"/>
	</linearGradient>
	<polygon class="st240" points="364.6,629.8 330.8,604 330.8,573.5 364.6,599.3 	"/>
	<polygon class="st24" points="363.8,601.1 331.7,576.5 331.7,575.5 363.8,600 	"/>
	
		<linearGradient id="SVGID_67_" gradientUnits="userSpaceOnUse" x1="403.3958" y1="584.8817" x2="365.494" y2="567.8469" gradientTransform="matrix(0.866 -0.5 0 1.1547 46.5142 131.951)">
		<stop  offset="0" style="stop-color:#9AC5D2"/>
		<stop  offset="0.2888" style="stop-color:#8FC5D4"/>
		<stop  offset="0.77" style="stop-color:#6FC5D9"/>
		<stop  offset="1" style="stop-color:#57C5DD"/>
	</linearGradient>
	<polygon class="st241" points="388.9,611.1 364.6,629.8 364.6,599.3 388.9,580.6 	"/>
	
		<linearGradient id="SVGID_68_" gradientUnits="userSpaceOnUse" x1="702.0428" y1="532.3652" x2="754.2068" y2="498.9994" gradientTransform="matrix(0.866 0.5 -1 0.5774 260.8252 -83.3806)">
		<stop  offset="4.830920e-003" style="stop-color:#E0F2F5"/>
		<stop  offset="0.1521" style="stop-color:#D6EEF3"/>
		<stop  offset="0.3982" style="stop-color:#BCE4EE"/>
		<stop  offset="0.7108" style="stop-color:#8FD4E5"/>
		<stop  offset="1" style="stop-color:#57C5DD"/>
	</linearGradient>
	<polygon class="st242" points="355.1,554.9 330.8,573.5 364.6,599.2 388.9,580.6 	"/>
	<polygon class="st12" points="364.6,597.5 332,572.6 330.8,573.5 364.6,599.2 388.9,580.6 387.7,579.7 	"/>
	<polygon class="st24" points="348.3,586.8 372.6,568.2 371.6,567.4 347.3,586.1 	"/>
	<polygon class="st24" points="347.3,586.1 347.3,587.6 348.3,588.2 348.3,586.8 	"/>
</g>
</svg>
